<?xml version="1.0" encoding="utf-8"?>
<!-- Generator: Adobe Illustrator 24.0.0, SVG Export Plug-In . SVG Version: 6.00 Build 0)  -->
<svg version="1.1" id="Layer_1" xmlns="http://www.w3.org/2000/svg" xmlns:xlink="http://www.w3.org/1999/xlink" x="0px" y="0px"
	 viewBox="0 0 428 207" style="enable-background:new 0 0 428 207;" xml:space="preserve">
<style type="text/css">
	.st0{enable-background:new    ;}
	.st1{fill:#FFCCFF;}
</style>
<g id="Layer_3">
	<g>
		<g class="st0">
			<g>
				<polygon points="54.8,56.7 62.5,65.7 51.2,66.7 43.5,57.8 				"/>
			</g>
			<g>
				<polygon class="st1" points="54.8,56.7 62.5,65.7 63,73.5 55.3,64.6 				"/>
			</g>
			<g>
				<polygon points="55.3,56.2 63,65.1 63.4,71.5 55.7,62.5 				"/>
			</g>
			<g>
				<polygon points="55.8,63.6 63.4,72.5 63,73.5 55.3,64.6 				"/>
			</g>
			<g>
				<path d="M81,59.1l7.7,9c-2.8-3.2-7.1-4.9-11.9-4.5c-4.6,0.4-10.5,2.3-13.3,9l-7.7-9c2.7-6.7,8.7-8.5,13.3-9
					C73.9,54.2,78.2,55.9,81,59.1z"/>
			</g>
			<g>
				<polygon class="st1" points="56.4,77 64.1,86 65,99.6 57.3,90.7 				"/>
			</g>
			<g>
				<polygon points="56.9,77 64.6,85.9 65.5,100.1 57.8,91.1 				"/>
			</g>
			<g>
				<path class="st1" d="M69.3,74.3c-3.6,2.4-5.5,7.3-5.2,11.7l-7.7-9c-0.3-4.4,1.6-9.3,5.2-11.7c0.3,0.3,0.6,0.7,0.9,1
					c0.3,0.3,0.7,0.8,0.9,1.1c0.3,0.3,0.7,0.8,1,1.2c0.3,0.4,0.7,0.8,1,1.2c0.3,0.4,0.7,0.8,1,1.2c0.3,0.3,0.7,0.8,1,1.2
					c0.3,0.3,0.7,0.8,0.9,1.1C68.7,73.6,69,74,69.3,74.3z"/>
			</g>
			<g>
				<path class="st1" d="M73.4,72.9c-1.6,0.1-2.9,0.7-4.1,1.5c-2.6-3-5.1-6-7.7-9c1.2-0.8,2.6-1.3,4.1-1.5c2.2-0.2,3.9,0.4,5.1,1.9
					l7.7,9C77.3,73.3,75.6,72.7,73.4,72.9z"/>
			</g>
			<g>
				<path d="M70.5,66.1l7.7,9c-1.1-1.3-2.7-1.9-4.7-1.7c-5.9,0.5-9.2,7-8.9,12.6l-7.7-9c-0.4-5.6,2.9-12,8.9-12.6
					C67.8,64.2,69.4,64.8,70.5,66.1z"/>
			</g>
			<g>
				<polygon points="43.5,57.8 51.2,66.7 53.3,100.7 45.7,91.7 				"/>
			</g>
			<g>
				<path d="M81.4,58.8l7.7,9c0.5,0.6,1,1.3,1.4,2l-7.7-9C82.4,60.1,81.9,59.4,81.4,58.8z"/>
			</g>
			<g>
				<path class="st1" d="M88.6,68.1c0.6,0.7,1.1,1.5,1.6,2.3l-7.7-9c-0.4-0.8-1-1.6-1.6-2.3C83.3,61.8,86.3,65.4,88.6,68.1z"/>
			</g>
			<g>
				<polygon class="st1" points="82.5,61.4 90.2,70.4 90.4,70.8 82.8,61.8 				"/>
			</g>
			<g>
				<polygon points="83,61.4 90.6,70.4 90.4,70.8 82.8,61.8 				"/>
			</g>
			<g>
				<path d="M70.9,65.7l7.7,9c1.1,1.3,1.8,3.4,2,6l-7.7-9C72.7,69.1,72,67.1,70.9,65.7z"/>
			</g>
			<g>
				<polygon class="st1" points="57.3,90.7 65,99.6 53.3,100.7 45.7,91.7 				"/>
			</g>
			<g>
				<polygon points="57.8,91.1 65.5,100.1 52.9,101.2 45.2,92.3 				"/>
			</g>
			<g>
				<path d="M108.9,56.4l7.7,9c-2.6-3-6.5-4.9-11.8-4.4c-6,0.6-11.3,4-14.1,9.3l-7.7-9c2.8-5.3,8.1-8.8,14.1-9.3
					C102.4,51.6,106.3,53.4,108.9,56.4z"/>
			</g>
			<g>
				<polygon class="st1" points="84.7,73.8 92.4,82.8 93.3,97 85.6,88.1 				"/>
			</g>
			<g>
				<polygon points="85.2,73.8 92.9,82.8 93.8,97.5 86.1,88.5 				"/>
			</g>
			<g>
				<path class="st1" d="M94.7,74.1c-1.7,2.2-2.6,5.3-2.4,8.7l-7.7-9c-0.2-3.4,0.7-6.5,2.4-8.7c0.3,0.3,0.6,0.7,0.9,1
					s0.7,0.8,0.9,1.1c0.3,0.3,0.7,0.8,1,1.2c0.3,0.4,0.7,0.8,1,1.2c0.3,0.4,0.7,0.8,1,1.2c0.3,0.3,0.7,0.8,1,1.2
					c0.3,0.3,0.7,0.8,0.9,1.1C94.1,73.4,94.5,73.8,94.7,74.1z"/>
			</g>
			<g>
				<path class="st1" d="M102,70.1c-3.1,0.3-5.6,1.7-7.3,4c-2.6-3-5.1-6-7.7-9c1.7-2.2,4.2-3.7,7.3-4c1.7-0.2,3.5,0.5,4.8,2l7.7,9
					C105.5,70.6,103.7,70,102,70.1z"/>
			</g>
			<g>
				<path d="M98.8,63.5l7.7,9c-1.2-1.4-2.8-2-4.4-1.8c-5.8,0.5-9.6,5.5-9.2,12.1l-7.7-9c-0.4-6.6,3.4-11.6,9.2-12.1
					C96,61.5,97.6,62.1,98.8,63.5z"/>
			</g>
			<g>
				<polygon points="72.9,71.8 80.5,80.7 81.6,98.1 74,89.2 				"/>
			</g>
			<g>
				<path d="M99.2,63.2l7.7,9c1.1,1.2,1.8,3.1,2,5.6l-7.7-9C101,66.3,100.2,64.4,99.2,63.2z"/>
			</g>
			<g>
				<polygon class="st1" points="85.6,88.1 93.3,97 81.6,98.1 74,89.2 				"/>
			</g>
			<g>
				<polygon points="86.1,88.5 93.8,97.5 81.2,98.7 73.5,89.7 				"/>
			</g>
			<g>
				<polygon class="st1" points="112.6,66.2 120.2,75.1 121.5,94.6 113.8,85.6 				"/>
			</g>
			<g>
				<polygon points="113.1,66.1 120.7,75.1 122,95 114.4,86.1 				"/>
			</g>
			<g>
				<path class="st1" d="M116.6,65.4c2.2,2.6,3.5,6.1,3.7,9.7l-7.7-9c-0.2-3.6-1.4-7.1-3.7-9.7C111.2,59.1,114.3,62.7,116.6,65.4z"
					/>
			</g>
			<g>
				<path d="M109.4,56.2l7.7,9c2,2.3,3.4,5.6,3.6,9.9l-7.7-9C112.8,61.8,111.4,58.6,109.4,56.2z"/>
			</g>
			<g>
				<polygon points="101.1,68.8 108.8,77.8 109.9,95.6 102.3,86.7 				"/>
			</g>
			<g>
				<path class="st1" d="M97,52.1c10.1-0.9,15,6.4,15.5,14.1l1.2,19.4l-11.5,1.1l-1.1-17.9c-0.4-5.7-3.7-7.9-6.8-7.6
					c-6.1,0.6-10.1,5.8-9.7,12.7l0.9,14.2L74,89.2l-1.1-17.4c-0.4-5.5-2.9-8.3-7.1-7.9c-6.2,0.6-9.7,7.3-9.3,13.1l0.9,13.7
					l-11.6,1.1l-2.2-34l11.3-1l0.5,7.9l0.4-1c2.7-6.7,8.7-8.5,13.3-9c5.9-0.5,11,2.1,13.5,6.8l0.2,0.4l0.2-0.4
					C85.8,56.1,91,52.6,97,52.1z"/>
			</g>
			<g>
				<polygon class="st1" points="113.8,85.6 121.5,94.6 109.9,95.6 102.3,86.7 				"/>
			</g>
			<g>
				<polygon points="114.4,86.1 122,95 109.5,96.2 101.8,87.2 				"/>
			</g>
			<g>
				<path d="M97,51.6c7.5-0.7,15.4,3.6,16.1,14.5l1.3,19.9l-12.5,1.1l-1.2-18.4c-0.3-5.3-3.4-7.4-6.3-7.2c-5.8,0.5-9.6,5.5-9.2,12.1
					l0.9,14.7l-12.6,1.2l-1.1-17.9c-0.3-5.2-2.6-7.8-6.6-7.4c-5.9,0.5-9.2,7-8.9,12.6L57.8,91l-12.6,1.2l-2.2-35l12.3-1.1l0.4,6.3
					c2.4-4.8,7.1-7.8,13.3-8.4c5.9-0.5,11.1,2,13.8,6.7C85.7,55.6,91,52.1,97,51.6z M113.8,85.6l-1.2-19.4
					c-0.5-7.7-5.5-15-15.5-14.1c-6,0.6-11.3,4-14.1,9.3l-0.2,0.4l-0.2-0.4c-2.5-4.7-7.6-7.3-13.5-6.8c-4.6,0.4-10.5,2.3-13.3,9
					l-0.4,1l-0.5-7.9l-11.3,1l2.2,34l11.6-1.1l-1-13.6c-0.4-5.9,3.1-12.5,9.3-13.1c4.2-0.4,6.7,2.4,7.1,7.9L74,89.2l11.6-1.1
					l-0.9-14.2c-0.4-6.9,3.5-12.1,9.7-12.7c3.1-0.3,6.4,2,6.8,7.6l1.1,17.9L113.8,85.6"/>
			</g>
		</g>
		<g class="st0">
			<g>
				<path class="st1" d="M152,63.6c-0.7,0.1-1.4,0.2-2.1,0.5c-2.6-3-5.1-6-7.7-9c0.7-0.3,1.4-0.4,2.1-0.5c0.6,0.7,1.2,1.4,1.8,2.2
					c0.3,0.3,0.7,0.8,1,1.2s0.7,0.8,1,1.2s0.7,0.8,1,1.2c0.3,0.3,0.7,0.8,1,1.2c0.3,0.3,0.7,0.8,0.9,1.1
					C151.3,62.8,151.7,63.3,152,63.6z"/>
			</g>
			<g>
				<path d="M160.9,53.5l7.7,9c-3.9-4.5-10.3-6.8-18.2-6.1c-12.1,1.1-20.4,9.6-19.7,20.1c0.2,3.7,1.6,7.3,4.1,10.1l-7.7-9
					c-2.5-2.9-3.9-6.5-4.1-10.1c-0.7-10.5,7.6-19,19.7-20.1C150.6,46.7,157,49,160.9,53.5z"/>
			</g>
			<g>
				<path class="st1" d="M149.9,64.1c-2.6,1-4.8,3.5-6.4,7.2c-2.6-3-5.1-6-7.7-9c1.6-3.7,3.9-6.2,6.4-7.2c0.3,0.3,0.6,0.7,0.9,1
					c0.3,0.3,0.7,0.8,0.9,1.1c0.3,0.3,0.7,0.8,1,1.2s0.7,0.8,1,1.2s0.7,0.8,1,1.2c0.3,0.3,0.7,0.8,1,1.2c0.3,0.3,0.7,0.8,0.9,1.1
					C149.3,63.3,149.6,63.8,149.9,64.1z"/>
			</g>
			<g>
				<path class="st1" d="M155.9,64.3c-1.3-0.6-2.7-0.8-4-0.7c-2.6-3-5.1-6-7.7-9c1.3-0.1,2.6,0.1,4,0.7
					C150.8,58.3,153.4,61.3,155.9,64.3z"/>
			</g>
			<g>
				<path class="st1" d="M158.8,66.3c-0.7-0.9-1.7-1.6-2.8-2c-2.6-3-5.1-6-7.7-9c1.1,0.5,2.1,1.2,2.8,2
					C153.4,60,156.5,63.6,158.8,66.3z"/>
			</g>
			<g>
				<path class="st1" d="M143.4,71.3c-2.3,5-2.2,9.2,0.1,11.9l-7.7-9c-2.3-2.7-2.3-6.9-0.1-11.9C138.3,65.3,140.9,68.3,143.4,71.3z"
					/>
			</g>
			<g>
				<path d="M150.7,57.6l7.7,9c-0.7-0.8-1.6-1.4-2.7-1.9c-1.3-0.5-2.5-0.8-3.7-0.7c-0.7,0.1-1.3,0.2-1.9,0.5c-2.5,1-4.6,3.4-6.2,7
					c-2.7,6-1.7,9.4,0,11.3l-7.7-9c-1.7-1.9-2.7-5.4,0-11.3c1.6-3.6,3.7-6,6.2-7c0.6-0.3,1.3-0.4,1.9-0.5c1.2-0.1,2.5,0.1,3.7,0.7
					C149.1,56.2,150,56.8,150.7,57.6z"/>
			</g>
			<g>
				<path d="M148.3,55.3c1.9,0.8,3.3,2.2,4,4.1c1,2.6,0.6,6-1,9.6c-2.2,4.7-5.6,7.6-9.1,7.9c-1.2,0.1-2.3-0.1-3.5-0.5
					c-4.9-2.1-6-7.3-3-14c1.6-3.7,3.9-6.2,6.4-7.2c0.7-0.3,1.4-0.4,2.1-0.5C145.6,54.5,146.9,54.7,148.3,55.3z M150.9,68.8
					c1.6-3.5,1.9-6.7,1-9.2c-0.7-1.8-1.9-3-3.8-3.8c-1.3-0.5-2.5-0.8-3.7-0.7c-0.7,0.1-1.3,0.2-1.9,0.5c-2.5,1-4.6,3.4-6.2,7
					c-4.2,9.2,0.5,12.4,2.7,13.3c1.1,0.5,2.2,0.6,3.3,0.5C145.6,76.1,148.7,73.3,150.9,68.8"/>
			</g>
			<g>
				<path d="M151.1,57.3l7.7,9c0.5,0.6,0.9,1.3,1.2,2.1c1,2.6,0.6,6-1,9.6c-2.2,4.7-5.6,7.6-9.1,7.9c-1.2,0.1-2.3-0.1-3.5-0.5
					c-1.2-0.5-2.2-1.2-2.9-2.1l-7.7-9c0.7,0.9,1.7,1.6,2.9,2.1c1.1,0.5,2.3,0.6,3.5,0.5c3.5-0.3,6.9-3.2,9.1-7.9c1.6-3.6,2-7,1-9.6
					C152,58.6,151.6,57.9,151.1,57.3z"/>
			</g>
			<g>
				<path class="st1" d="M168.6,62.5c2.3,2.6,3.6,6.1,3.9,10c-2.6-3-5.1-6-7.7-9c-0.3-4-1.6-7.4-3.9-10
					C163.2,56.2,166.3,59.8,168.6,62.5z"/>
			</g>
			<g>
				<path class="st1" d="M152.7,92.9c-8.2,0.7-14.3-2-17.9-6.3l-7.7-9c3.7,4.3,9.7,7.1,17.9,6.3C147.6,86.9,150.1,89.9,152.7,92.9z"
					/>
			</g>
			<g>
				<path class="st1" d="M172.5,72.5c0.6,9.2-6,19.1-19.8,20.4c-2.6-3-5.1-6-7.7-9c13.8-1.3,20.4-11.2,19.8-20.4
					c0.3,0.3,0.6,0.7,0.9,1c0.3,0.3,0.7,0.8,0.9,1.1c0.3,0.3,0.7,0.8,1,1.2c0.3,0.4,0.7,0.8,1,1.2C169.9,69.5,171.2,71,172.5,72.5z"
					/>
			</g>
			<g>
				<path d="M161.3,53.2l7.7,9c2.3,2.7,3.7,6.2,4,10.3c0.4,5.6-1.6,10.6-5.6,14.5c-3.7,3.6-8.9,5.9-14.7,6.5
					c-6.4,0.6-12-0.9-16.2-4.4c-0.8-0.7-1.5-1.4-2.2-2.1l-7.7-9c0.7,0.8,1.4,1.5,2.2,2.1c4.2,3.5,9.8,5,16.2,4.4
					c5.7-0.5,11-2.8,14.7-6.5c4-3.9,5.9-8.9,5.6-14.5C165,59.4,163.6,55.9,161.3,53.2z"/>
			</g>
			<g>
				<path d="M142.7,46.9c12.8-1.2,21.9,5.5,22.6,16.6c0.4,5.6-1.6,10.6-5.6,14.5c-3.7,3.6-8.9,5.9-14.7,6.5
					c-6.4,0.6-12-0.9-16.2-4.4c-3.8-3.1-6.1-7.7-6.4-12.5C121.8,56.7,130.3,48,142.7,46.9z M145,83.9c13.8-1.3,20.4-11.2,19.8-20.4
					c-0.7-10.8-9.6-17.3-22.1-16.2c-12.1,1.1-20.4,9.6-19.7,20.1C123.6,76.6,131.3,85.2,145,83.9"/>
			</g>
			<g>
				<path class="st1" d="M142.7,47.4c12.5-1.1,21.4,5.3,22.1,16.2c0.6,9.2-6,19.1-19.8,20.4c-13.7,1.3-21.5-7.3-22-16.5
					C122.3,56.9,130.6,48.5,142.7,47.4z M151.3,68.9c1.6-3.6,2-7,1-9.6c-0.7-1.9-2.1-3.3-4-4.1c-1.3-0.6-2.7-0.8-4-0.7
					c-0.7,0.1-1.4,0.2-2.1,0.5c-2.6,1-4.8,3.5-6.4,7.2c-3,6.7-1.9,11.9,3,14c1.1,0.5,2.3,0.6,3.5,0.5
					C145.7,76.5,149.1,73.7,151.3,68.9"/>
			</g>
		</g>
		<g class="st0">
			<g>
				<polygon points="214.5,28 222.2,37 210.5,38 202.9,29.1 				"/>
			</g>
			<g>
				<path d="M185.1,82.6l-7.7-9c-2.4-2.8-3.9-6.5-4.2-10.7c-0.8-12.3,9.9-19.1,17.3-19.8c4.5-0.4,9.2,0.9,13,3.7l7.7,9
					c-3.7-2.8-8.5-4.1-13-3.7c-7.5,0.7-18.1,7.4-17.3,19.8C181.2,76.1,182.7,79.8,185.1,82.6z"/>
			</g>
			<g>
				<path class="st1" d="M199.4,59.3c-1.7,0.2-3.2,0.8-4.6,1.9c-2.6-3-5.1-6-7.7-9c1.4-1.1,2.9-1.8,4.6-1.9c0.3,0.3,0.6,0.7,0.9,1
					c0.3,0.3,0.7,0.8,0.9,1.1c0.3,0.3,0.7,0.8,1,1.2s0.7,0.8,1,1.2C196.8,56.3,198.1,57.8,199.4,59.3z"/>
			</g>
			<g>
				<path class="st1" d="M201,59.3c-0.5-0.1-1.1-0.1-1.6,0c-2.6-3-5.1-6-7.7-9c0.5,0,1.1,0,1.6,0c0.3,0.3,0.6,0.7,0.9,1
					c0.3,0.3,0.7,0.8,0.9,1.1c0.3,0.3,0.7,0.8,1,1.2s0.7,0.8,1,1.2s0.7,0.8,1,1.2c0.3,0.3,0.7,0.8,1,1.2c0.3,0.3,0.7,0.8,0.9,1.1
					C200.3,58.6,200.7,59,201,59.3z"/>
			</g>
			<g>
				<polygon points="204,47.1 211.7,56.1 211.2,55.8 203.6,46.8 				"/>
			</g>
			<g>
				<polygon points="202.9,29.1 210.5,38 211.7,56.1 204,47.1 				"/>
			</g>
			<g>
				<path class="st1" d="M208.3,63.5c-2.1-2.4-4.7-3.9-7.3-4.2c-2.6-3-5.1-6-7.7-9c2.6,0.3,5.2,1.7,7.3,4.2
					C202.9,57.2,206,60.8,208.3,63.5z"/>
			</g>
			<g>
				<path d="M200.6,54.5l7.7,9c0.1,0.2,0.3,0.3,0.4,0.5l-7.7-9C200.9,54.8,200.7,54.7,200.6,54.5z"/>
			</g>
			<g>
				<path class="st1" d="M194.8,61.2c-4.3,3.5-4.2,8.8,0.4,14.5c-2.6-3-5.1-6-7.7-9c-4.5-5.7-4.7-11-0.4-14.5c0.3,0.3,0.6,0.7,0.9,1
					c0.3,0.3,0.7,0.8,0.9,1.1c0.3,0.3,0.7,0.8,1,1.2s0.7,0.8,1,1.2c0.7,0.8,1.3,1.5,2,2.3c0.3,0.3,0.7,0.8,0.9,1.1
					C194.1,60.5,194.5,60.9,194.8,61.2z"/>
			</g>
			<g>
				<path class="st1" d="M195.1,75.7c0.1,0.2,0.3,0.3,0.4,0.5l-7.7-9c-0.1-0.2-0.3-0.3-0.4-0.5c0.3,0.3,0.6,0.7,0.9,1
					c0.3,0.3,0.7,0.8,0.9,1.1c0.3,0.3,0.7,0.8,1,1.2c0.3,0.4,0.7,0.8,1,1.2c0.2,0.2,0.4,0.4,0.5,0.6s0.3,0.4,0.5,0.6
					c0.3,0.3,0.7,0.8,1,1.2c0.1,0.2,0.3,0.4,0.5,0.6C194.2,74.6,194.7,75.2,195.1,75.7z"/>
			</g>
			<g>
				<path d="M200.3,54.9l7.7,9c-2-2.4-4.5-3.8-7-4c-0.5,0-1-0.1-1.5,0c-1.6,0.1-3,0.8-4.3,1.8c-4.1,3.4-4,8.3,0.5,13.8
					c0.1,0.2,0.3,0.3,0.4,0.5l-7.7-9c-0.1-0.1-0.3-0.3-0.4-0.5c-4.4-5.5-4.6-10.4-0.5-13.8c1.3-1,2.8-1.7,4.3-1.8c0.5,0,1,0,1.5,0
					C195.8,51.1,198.2,52.5,200.3,54.9z"/>
			</g>
			<g>
				<path d="M195.5,76.2l-7.7-9c2.3,2.7,4.8,4.2,7.2,4.4c0.4,0,0.9,0,1.3,0c1.6-0.1,3.2-0.9,4.8-2.1c1.7-1.4,2.8-3.4,3.1-5.5
					c0.3-2.9-0.8-6-3.3-9l7.7,9c2.5,3,3.6,6.1,3.3,9c-0.3,2.2-1.3,4.1-3.1,5.5c-1.6,1.3-3.2,2-4.8,2.1c-0.4,0-0.9,0-1.3,0
					C200.3,80.4,197.8,78.8,195.5,76.2z"/>
			</g>
			<g>
				<path d="M193.3,50.3c2.8,0.3,5.6,1.9,7.7,4.7c2.5,3,3.6,6.1,3.3,9c-0.3,2.2-1.3,4.1-3.1,5.5c-1.6,1.3-3.2,2-4.8,2.1
					c-0.4,0-0.9,0-1.3,0c-2.6-0.2-5.2-1.9-7.6-4.9c-4.5-5.7-4.7-11-0.4-14.5c1.4-1.1,2.9-1.8,4.6-1.9
					C192.2,50.3,192.8,50.3,193.3,50.3z M203.8,63.9c0.3-2.7-0.8-5.7-3.1-8.6c-2.1-2.6-4.7-4.2-7.4-4.5c-0.5,0-1-0.1-1.5,0
					c-1.6,0.1-3,0.8-4.3,1.8c-4.1,3.4-4,8.3,0.5,13.8c2.3,2.8,4.8,4.5,7.3,4.7c0.4,0,0.8,0,1.2,0c1.5-0.1,3.1-0.8,4.5-2
					C202.5,67.8,203.5,65.9,203.8,63.9"/>
			</g>
			<g>
				<polygon class="st1" points="205.5,71.7 213.1,80.6 212.7,81.2 205.1,72.2 				"/>
			</g>
			<g>
				<path class="st1" d="M185.1,82.6l-7.7-9c3.5,4,8.7,6.3,14.7,5.7c5.2-0.5,10.2-3.2,12.9-7.1l7.7,9c-2.8,3.9-7.7,6.6-12.9,7.1
					C193.9,88.8,188.6,86.6,185.1,82.6z"/>
			</g>
			<g>
				<path d="M184.8,82.9l-7.7-9c3.5,4.2,9,6.4,15.1,5.9c5.1-0.5,10-3,12.9-6.8l7.7,9c-2.9,3.7-7.8,6.3-12.9,6.8
					C193.7,89.3,188.3,87,184.8,82.9z"/>
			</g>
			<g>
				<polygon points="205.5,71.7 213.1,80.6 213.5,86.2 205.8,77.2 				"/>
			</g>
			<g>
				<polygon class="st1" points="214.5,28 222.2,37 225.2,85.1 217.6,76.1 				"/>
			</g>
			<g>
				<polygon class="st1" points="217.6,76.1 225.2,85.1 213.5,86.2 205.8,77.2 				"/>
			</g>
			<g>
				<path d="M202.3,28.6l12.6-1.2l3.1,49.1l-12.7,1.2L205,73c-2.9,3.7-7.8,6.3-12.9,6.8c-10.4,0.9-18.7-6.3-19.4-16.9
					c-0.8-12.7,10.1-19.6,17.8-20.3c4.5-0.4,9.1,0.9,12.9,3.5L202.3,28.6z M217.6,76.1L214.5,28l-11.6,1.1l1.2,18l-0.4-0.3
					c-3.7-2.8-8.5-4.1-13-3.7c-7.5,0.7-18.1,7.4-17.3,19.8c0.7,10.3,8.8,17.4,18.9,16.5c5.2-0.5,10.2-3.2,12.9-7.1l0.4-0.6l0.4,5.5
					L217.6,76.1"/>
			</g>
			<g>
				<path class="st1" d="M202.9,29.1l11.6-1.1l3.1,48.1l-11.7,1.1l-0.4-5.5l-0.4,0.6c-2.8,3.9-7.7,6.6-12.9,7.1
					c-10.1,0.9-18.2-6.1-18.9-16.5c-0.8-12.3,9.9-19.1,17.3-19.8c4.5-0.4,9.2,0.9,13,3.7l0.4,0.3L202.9,29.1z M204.3,63.9
					c0.3-2.9-0.8-6-3.3-9c-2.1-2.7-4.9-4.4-7.7-4.7c-0.5-0.1-1.1-0.1-1.6,0c-1.7,0.2-3.2,0.8-4.6,1.9c-4.3,3.5-4.2,8.8,0.4,14.5
					c2.4,3,5,4.6,7.6,4.9c0.4,0,0.9,0,1.3,0c1.6-0.1,3.2-0.9,4.8-2.1C202.9,68.1,204,66.1,204.3,63.9"/>
			</g>
			<g>
				<polygon points="218.1,76.6 225.8,85.5 213,86.7 205.4,77.7 				"/>
			</g>
			<g>
				<polygon points="215,27.5 222.6,36.4 225.8,85.5 218.1,76.6 				"/>
			</g>
		</g>
		<g class="st0">
			<g>
				<path d="M239.7,77.4l-7.7-9c-3.6-4.2-4.1-9.3-4.2-10.3c-0.7-10.6,7.7-19.4,19.5-20.5c5-0.5,10.3,0.6,14.5,3.6l7.7,9
					c-4.2-2.9-9.5-4-14.5-3.6c-11.8,1.1-20.2,9.9-19.5,20.5C235.6,68.1,236.1,73.2,239.7,77.4z"/>
			</g>
			<g>
				<path class="st1" d="M258.8,51.1c-1.1-1.3-2.2-2.5-3.3-3.8c-0.8-0.9-1.6-1.9-2.4-2.8c-0.1-0.1-0.2-0.2-0.3-0.4
					c-0.1-0.1-0.2-0.2-0.3-0.4c-0.1-0.1-0.2-0.2-0.3-0.3c-0.3-0.3-0.6-0.7-0.9-1c-0.1-0.1-0.3-0.2-0.3-0.3c0,0,0,0,0.1-0.1
					C253.7,45,256.3,48,258.8,51.1C258.8,51,258.8,51.1,258.8,51.1z"/>
			</g>
			<g>
				<path class="st1" d="M258.8,51.1c-0.1,0.1-0.3,0.3-0.4,0.4c-2.6-3-5.1-6-7.7-9c0.1-0.1,0.3-0.3,0.4-0.4
					C253.6,45.1,256.2,48.1,258.8,51.1z"/>
			</g>
			<g>
				<path class="st1" d="M258.3,51.6c-2.6-3-5.1-6-7.7-9c0,0,0,0,0.1-0.1c0.3,0.3,0.6,0.7,0.9,1c0.3,0.3,0.7,0.8,0.9,1.1
					c0.3,0.3,0.7,0.8,1,1.2s0.7,0.8,1,1.2s0.7,0.8,1,1.2c0.3,0.3,0.7,0.8,1,1.2c0.3,0.3,0.7,0.8,0.9,1.1
					C257.7,50.8,258.1,51.2,258.3,51.6C258.4,51.5,258.3,51.5,258.3,51.6z"/>
			</g>
			<g>
				<path class="st1" d="M260.4,50c-0.5,0.2-1.1,0.6-1.6,1c-0.3-0.3-0.6-0.7-0.9-1s-0.7-0.8-0.9-1.1c-1.9-2.3-3.9-4.5-5.8-6.8
					c0.5-0.5,1-0.8,1.6-1c0.3,0.3,0.6,0.7,0.9,1c0.3,0.3,0.7,0.8,0.9,1.1c0.3,0.3,0.7,0.8,1,1.2s0.7,0.8,1,1.2s0.7,0.8,1,1.2
					c0.3,0.3,0.7,0.8,1,1.2c0.3,0.3,0.7,0.8,0.9,1.1C259.8,49.2,260.1,49.7,260.4,50z"/>
			</g>
			<g>
				<path class="st1" d="M261.3,49.8c-0.3,0-0.6,0.1-0.9,0.2c-2.6-3-5.1-6-7.7-9c0.3-0.1,0.6-0.2,0.9-0.2
					C256.2,43.8,258.7,46.8,261.3,49.8z"/>
			</g>
			<g>
				<path class="st1" d="M258.3,51.6c-0.7,0.8-1.3,1.7-1.8,2.9l-7.7-9c0.5-1.2,1.1-2.2,1.8-2.9C253.2,45.6,255.8,48.6,258.3,51.6z"
					/>
			</g>
			<g>
				<path class="st1" d="M262.8,50c-0.5-0.2-1-0.3-1.6-0.3c-2.6-3-5.1-6-7.7-9c0.5,0,1.1,0,1.6,0.3C257.5,43.8,260.5,47.4,262.8,50z
					"/>
			</g>
			<g>
				<path class="st1" d="M256.5,54.5c-0.2,0.5-0.4,1-0.6,1.5c-2.6-3-5.1-6-7.7-9c0.2-0.5,0.4-1,0.6-1.5
					C251.2,48.2,254.2,51.8,256.5,54.5z"/>
			</g>
			<g>
				<path class="st1" d="M255.9,56c-2.6-3-5.1-6-7.7-9c0,0,0,0,0-0.1c0.3,0.3,0.6,0.7,0.9,1c0.3,0.3,0.7,0.8,0.9,1.1
					c0.3,0.3,0.7,0.8,1,1.2s0.7,0.8,1,1.2s0.7,0.8,1,1.2c0.3,0.3,0.7,0.8,1,1.2c0.3,0.3,0.7,0.8,0.9,1.1
					C255.3,55.2,255.7,55.7,255.9,56L255.9,56z"/>
			</g>
			<g>
				<path d="M255,41.5l7.7,9c-0.4-0.2-0.9-0.3-1.3-0.2c-0.2,0-0.5,0.1-0.7,0.2c-1.3,0.5-2.6,2-3.6,4.2l-7.7-9c1-2.2,2.3-3.7,3.6-4.2
					c0.3-0.1,0.5-0.2,0.7-0.2C254.1,41.2,254.5,41.3,255,41.5z"/>
			</g>
			<g>
				<path d="M255.9,42.2l7.7,9c-0.2-0.3-0.6-0.5-1-0.7l-7.7-9C255.4,41.7,255.7,41.9,255.9,42.2z"/>
			</g>
			<g>
				<path class="st1" d="M264,50.9c-0.3-0.3-0.7-0.6-1.1-0.8l-7.7-9c0.5,0.2,0.8,0.5,1.1,0.8C258.6,44.6,261.7,48.2,264,50.9z"/>
			</g>
			<g>
				<polygon class="st1" points="240.2,58.4 247.9,67.3 247.9,67.6 240.3,58.6 				"/>
			</g>
			<g>
				<path class="st1" d="M255.9,56c-0.8,2.3-0.7,4.1,0.3,5.2l-7.7-9c-0.9-1.1-1-2.9-0.3-5.2C250.8,50.1,253.4,53.1,255.9,56z"/>
			</g>
			<g>
				<path d="M256.6,61l-7.7-9c-1.4-1.6-0.4-4.5,0.4-6.3l7.7,9C256.2,56.4,255.2,59.4,256.6,61z"/>
			</g>
			<g>
				<path d="M263.7,40.5l7.7,9c-0.4,0.2-0.8,0.4-1.1,0.7l-7.7-9C263,40.9,263.4,40.6,263.7,40.5z"/>
			</g>
			<g>
				<path d="M256.2,61.3l-7.7-9c0.3,0.3,0.7,0.6,1.1,0.8l7.7,9C256.9,61.9,256.5,61.6,256.2,61.3z"/>
			</g>
			<g>
				<path class="st1" d="M271.3,51c-0.4-0.3-0.7-0.6-1.1-0.9l-7.7-9c0.4,0.3,0.7,0.6,1.1,0.9C266,44.8,269,48.3,271.3,51z"/>
			</g>
			<g>
				<path d="M256.3,41.9l7.7,9c0.2,0.3,0.4,0.6,0.5,0.9c0.5,1.4,0.3,3.5-0.8,5.7c-1.1,2.4-2.6,4.1-4.1,4.7c-0.3,0.1-0.6,0.2-0.9,0.2
					c-0.5,0-1,0-1.4-0.3l-7.7-9c0.5,0.2,0.9,0.3,1.4,0.3c0.3,0,0.6-0.1,0.9-0.2c1.5-0.6,3-2.3,4.1-4.7c1.1-2.3,1.3-4.3,0.8-5.7
					C256.7,42.5,256.5,42.2,256.3,41.9z"/>
			</g>
			<g>
				<path class="st1" d="M267.4,53.5c-0.2,0.5-0.4,1-0.6,1.5c-2.6-3-5.1-6-7.7-9c0.2-0.5,0.4-1,0.6-1.5c0.6-1.3,1.3-2.4,2.1-3.2
					l7.7,9C268.7,51,268,52.1,267.4,53.5z"/>
			</g>
			<g>
				<path class="st1" d="M266.8,55.1c-2.6-3-5.1-6-7.7-9c0,0,0,0,0-0.1c0.3,0.3,0.6,0.7,0.9,1s0.7,0.8,0.9,1.1
					c0.3,0.3,0.7,0.8,1,1.2s0.7,0.8,1,1.2s0.7,0.8,1,1.2c0.3,0.3,0.7,0.8,1,1.2c0.3,0.3,0.7,0.8,0.9,1.1
					C266.2,54.3,266.5,54.7,266.8,55.1C266.8,55,266.8,55,266.8,55.1z"/>
			</g>
			<g>
				<path d="M265.8,40.5l7.7,9c-0.4-0.2-0.9-0.3-1.3-0.2c-0.2,0-0.5,0.1-0.8,0.2l-7.7-9c0.3-0.1,0.5-0.2,0.8-0.2
					C264.9,40.3,265.4,40.3,265.8,40.5z"/>
			</g>
			<g>
				<path d="M266.8,41.2l7.7,9c-0.3-0.3-0.6-0.5-0.9-0.7l-7.7-9C266.2,40.7,266.5,40.9,266.8,41.2z"/>
			</g>
			<g>
				<path d="M249.7,53.1c-2.3-1-2.5-3.7-0.8-7.6c1-2.3,2.4-3.9,3.8-4.5c0.3-0.1,0.6-0.2,0.9-0.2c0.5,0,1.1,0,1.6,0.3
					c0.8,0.3,1.4,0.9,1.7,1.7c0.5,1.4,0.3,3.5-0.8,5.7c-1.1,2.4-2.6,4.1-4.1,4.7c-0.3,0.1-0.6,0.2-0.9,0.2
					C250.6,53.4,250.1,53.4,249.7,53.1z M249.3,45.7c-0.9,2.1-2.1,5.8,0.5,7c0.4,0.2,0.8,0.2,1.2,0.2c0.2,0,0.5-0.1,0.8-0.2
					c1.4-0.5,2.8-2.2,3.8-4.4s1.3-4.1,0.8-5.3c-0.3-0.7-0.7-1.2-1.4-1.5c-0.4-0.2-0.9-0.3-1.3-0.2c-0.2,0-0.5,0.1-0.7,0.2
					C251.6,42,250.3,43.5,249.3,45.7"/>
			</g>
			<g>
				<path class="st1" d="M273.1,52.9c-0.6-0.6-1.1-1.3-1.8-1.8l-7.7-9c0.6,0.6,1.2,1.2,1.8,1.8C267.8,46.6,270.8,50.2,273.1,52.9z"
					/>
			</g>
			<g>
				<path d="M265.3,44.4l7.7,9c-0.9-1.1-2-2-3.1-2.8l-7.7-9C263.3,42.4,264.4,43.3,265.3,44.4z"/>
			</g>
			<g>
				<path class="st1" d="M247.9,67.6c0.2,1.4,0.6,3.6,2.2,5.4l-7.7-9c-1.6-1.8-2-4.1-2.2-5.4C242.6,61.3,246.5,64.4,247.9,67.6z"/>
			</g>
			<g>
				<path class="st1" d="M266.8,55.1c-0.8,2.3-0.7,4.1,0.3,5.2l-7.7-9c-0.9-1.1-1-2.9-0.3-5.2C261.7,49.1,264.2,52.1,266.8,55.1z"/>
			</g>
			<g>
				<path d="M267.4,60l-7.7-9c-1.4-1.6-0.4-4.5,0.4-6.3c0.6-1.3,1.3-2.4,2-3.1l7.7,9c-0.7,0.8-1.4,1.8-2,3.1
					C267,55.4,266.1,58.4,267.4,60z"/>
			</g>
			<g>
				<path d="M267,60.3l-7.7-9c0.3,0.3,0.7,0.6,1.1,0.8c0.5,0.2,0.9,0.3,1.4,0.3c0.3,0,0.6-0.1,0.9-0.2c1.5-0.6,3-2.3,4.1-4.7
					c0.1-0.2,0.2-0.3,0.2-0.5l7.7,9c-0.1,0.2-0.1,0.3-0.2,0.5c-1.1,2.4-2.6,4.1-4.1,4.7c-0.3,0.1-0.6,0.2-0.9,0.2
					c-0.5,0-1,0-1.4-0.3C267.7,60.9,267.3,60.6,267,60.3z"/>
			</g>
			<g>
				<polygon class="st1" points="269.8,55.7 277.5,64.6 247.9,67.3 240.2,58.4 				"/>
			</g>
			<g>
				<path d="M250.5,72.7l-7.7-9c-1.4-1.6-1.9-3.6-2-4.9l7.7,9C248.6,69.1,249.1,71.1,250.5,72.7z"/>
			</g>
			<g>
				<path d="M265.5,43.9l7.7,9c0.6,0.7,1.1,1.3,1.6,2.1l-7.7-9C266.5,45.2,266,44.5,265.5,43.9z"/>
			</g>
			<g>
				<path class="st1" d="M266.8,41.2l7.7,9c0.2,0.2,0.3,0.5,0.5,0.8c0.4,1,0.3,2.4-0.2,4l-7.7-9c0.5-1.6,0.6-3,0.2-4
					C267.1,41.7,267,41.4,266.8,41.2z"/>
			</g>
			<g>
				<path class="st1" d="M263.7,42.1c-0.4-0.3-0.7-0.6-1.1-0.9c0.4-0.3,0.8-0.5,1.1-0.7c0.3-0.1,0.5-0.2,0.8-0.2
					c0.4,0,0.9,0,1.3,0.2c0.7,0.3,1.1,0.8,1.4,1.5c0.4,1,0.3,2.4-0.2,4C266.1,44.5,265,43.2,263.7,42.1z"/>
			</g>
			<g>
				<path d="M267.2,40.9l7.7,9c0.2,0.3,0.4,0.6,0.5,0.9c0.5,1.2,0.3,2.8-0.4,4.7l-7.7-9c0.7-1.9,0.8-3.5,0.4-4.7
					C267.6,41.5,267.4,41.2,267.2,40.9z"/>
			</g>
			<g>
				<polygon points="270.4,56.1 278,65.1 248.4,67.8 240.8,58.8 				"/>
			</g>
			<g>
				<path d="M250.1,73l-7.7-9c1.5,1.8,4.1,3.2,8.5,2.8c3.5-0.3,6.1-1.8,7.7-4.3l7.7,9c-1.6,2.6-4.2,4-7.7,4.3
					C254.3,76.2,251.7,74.9,250.1,73z"/>
			</g>
			<g>
				<polygon points="270.3,55.9 278,64.8 278,65.1 270.4,56.1 				"/>
			</g>
			<g>
				<path class="st1" d="M267.1,47l7.7,9c1.4,2.4,2.4,5.3,2.7,8.7l-7.7-9C269.5,52.3,268.5,49.4,267.1,47z"/>
			</g>
			<g>
				<path d="M267.3,46.5l7.7,9c1.7,2.7,2.7,5.9,3,9.4l-7.7-9C270,52.4,269,49.2,267.3,46.5z"/>
			</g>
			<g>
				<polygon points="269.8,61.5 277.5,70.4 266.3,71.5 258.7,62.5 				"/>
			</g>
			<g>
				<polygon points="270.4,60.9 278,69.9 278,70.4 270.4,61.4 				"/>
			</g>
			<g>
				<path class="st1" d="M239.7,77.4l-7.7-9c3.2,3.7,8.7,6.8,18.5,5.9c13.4-1.2,18.3-10.4,19.4-12.8l7.7,9
					c-1.1,2.5-5.9,11.6-19.4,12.8C248.4,84.2,242.8,81.1,239.7,77.4z"/>
			</g>
			<g>
				<path class="st1" d="M251,66.9c3.5-0.3,6.1-1.8,7.7-4.3l11.2-1c-1.1,2.5-5.9,11.6-19.4,12.8C229.6,76.2,228,60,227.8,58.2
					c-0.7-10.6,7.7-19.4,19.5-20.5c5-0.5,10.3,0.6,14.5,3.6c-0.8,0.8-1.5,1.9-2.1,3.2c-1.8,3.9-1.5,6.6,0.8,7.6
					c0.5,0.2,0.9,0.3,1.4,0.3c0.3,0,0.6-0.1,0.9-0.2c1.5-0.6,3-2.3,4.1-4.7c0.1-0.2,0.2-0.3,0.2-0.5c1.4,2.4,2.4,5.3,2.7,8.7
					l-29.6,2.7v0.3C240.6,61.4,242.2,67.7,251,66.9z M248.9,45.5c-1.8,3.9-1.5,6.6,0.8,7.6c0.5,0.2,0.9,0.3,1.4,0.3
					c0.3,0,0.6-0.1,0.9-0.2c1.5-0.6,3-2.3,4.1-4.7c1.1-2.3,1.3-4.3,0.8-5.7c-0.3-0.8-0.9-1.4-1.7-1.7c-0.5-0.2-1-0.3-1.6-0.3
					c-0.3,0-0.6,0.1-0.9,0.2C251.3,41.6,249.9,43.2,248.9,45.5"/>
			</g>
			<g>
				<path d="M239.1,77.6l-7.7-9c3.6,4.2,9.7,7,19,6.1c14.3-1.3,19.1-11.4,19.9-13.4l7.7,9c-0.8,2-5.6,12.1-19.9,13.4
					C248.8,84.6,242.7,81.8,239.1,77.6z"/>
			</g>
			<g>
				<path d="M258.3,62.2l0.1-0.1l12-1.1v0.5c-0.8,2-5.6,12.1-19.9,13.4c-16.2,1.5-22.6-8-23.1-16.6c-0.7-10.9,7.9-19.9,19.9-21
					c5.8-0.5,10.9,0.7,14.9,3.6c0.4-0.4,0.9-0.7,1.4-0.9c0.3-0.1,0.6-0.2,0.9-0.2c0.5,0,1.1,0,1.6,0.3c0.8,0.3,1.4,0.9,1.7,1.7
					c0.5,1.2,0.3,2.8-0.4,4.7c1.7,2.7,2.7,5.9,3,9.4v0.2l-29.6,2.7c0.4,2.7,2.1,8.3,10.1,7.6C254.3,66.1,256.8,64.6,258.3,62.2z
					 M269.8,61.5l-11.2,1c-1.6,2.6-4.2,4-7.7,4.3c-8.8,0.8-10.4-5.5-10.7-8.2v-0.3l29.6-2.7c-0.3-3.4-1.3-6.3-2.7-8.7
					c-0.1,0.2-0.1,0.3-0.2,0.5c-1.1,2.4-2.6,4.1-4.1,4.7c-0.3,0.1-0.6,0.2-0.9,0.2c-0.5,0-1,0-1.4-0.3c-2.3-1-2.5-3.7-0.8-7.6
					c0.6-1.3,1.3-2.4,2.1-3.2c-4.2-2.9-9.5-4-14.5-3.6c-11.8,1.1-20.2,9.9-19.5,20.5c0.1,1.9,1.8,18,22.6,16.1
					C263.9,73.1,268.7,63.9,269.8,61.5 M262.2,41.6c-0.7,0.8-1.4,1.8-2,3.1c-0.9,2.1-2.1,5.8,0.5,7c0.4,0.2,0.8,0.2,1.2,0.2
					c0.2,0,0.5-0.1,0.8-0.2c1.4-0.5,2.8-2.2,3.8-4.4c0.1-0.3,0.3-0.6,0.4-0.8C265.6,44.5,264,42.9,262.2,41.6 M263.7,40.5
					c-0.4,0.2-0.8,0.4-1.1,0.7c0.4,0.3,0.7,0.6,1.1,0.9c1.3,1.1,2.4,2.5,3.3,3.9c0.5-1.6,0.6-3,0.2-4c-0.3-0.7-0.7-1.2-1.4-1.5
					c-0.4-0.2-0.9-0.3-1.3-0.2C264.2,40.3,264,40.4,263.7,40.5"/>
			</g>
		</g>
		<g class="st0">
			<g>
				<polygon points="290,35.2 297.6,44.2 286,45.2 278.3,36.3 				"/>
			</g>
			<g>
				<polygon class="st1" points="290,35.2 297.6,44.2 298.3,54.7 290.6,45.7 				"/>
			</g>
			<g>
				<polygon points="290.4,34.7 298.1,43.6 298.6,52.4 291,43.4 				"/>
			</g>
			<g>
				<polygon points="303.8,33.8 311.5,42.8 311.5,43 303.8,34.1 				"/>
			</g>
			<g>
				<path d="M303.8,34.3l7.7,9c-6.5,0.6-10.4,3.8-12.8,10.3l-7.7-9C293.4,38.1,297.4,34.9,303.8,34.3z"/>
			</g>
			<g>
				<polygon points="303.8,34.1 311.5,43 311.5,43.3 303.8,34.3 				"/>
			</g>
			<g>
				<polygon points="291,44.6 298.7,53.6 298.3,54.7 290.6,45.7 				"/>
			</g>
			<g>
				<path class="st1" d="M302.6,56.1c-2.6-3-5.1-6-7.7-9c0.1-0.1,0.3-0.2,0.4-0.3c0.3,0.3,0.6,0.7,0.9,1s0.7,0.8,0.9,1.1
					c0.3,0.3,0.7,0.8,1,1.2s0.7,0.8,1,1.2c0.7,0.8,1.3,1.5,2,2.3c0.3,0.3,0.7,0.8,0.9,1.1c0.3,0.3,0.6,0.7,0.9,1
					C302.9,55.9,302.8,56,302.6,56.1z"/>
			</g>
			<g>
				<path class="st1" d="M301.5,57.3c-0.1,0.2-0.3,0.3-0.4,0.5c-2.6-3-5.1-6-7.7-9c0.1-0.2,0.3-0.3,0.4-0.5c0.4-0.4,0.7-0.8,1.1-1.1
					c2.6,3,5.1,6,7.7,9C302.2,56.5,301.9,56.9,301.5,57.3z"/>
			</g>
			<g>
				<path class="st1" d="M305.1,54.6c-0.8,0.3-1.4,0.7-2,1.2c-2.6-3-5.1-6-7.7-9c0.6-0.5,1.3-0.8,2-1.2
					C300,48.6,302.6,51.6,305.1,54.6z"/>
			</g>
			<g>
				<path class="st1" d="M300,59.4c-2.6-3-5.1-6-7.7-9c0.3-0.5,0.6-1.1,1-1.6c0.3,0.3,0.6,0.7,0.9,1s0.7,0.8,0.9,1.1
					c0.3,0.3,0.7,0.8,1,1.2s0.7,0.8,1,1.2s0.7,0.8,1,1.2c0.3,0.3,0.7,0.8,1,1.2c0.3,0.3,0.7,0.8,0.9,1.1c0.3,0.3,0.6,0.7,0.9,1
					C300.7,58.3,300.3,58.9,300,59.4z"/>
			</g>
			<g>
				<path class="st1" d="M300,59.4c-0.2,0.5-0.4,0.9-0.6,1.4c-2.6-3-5.1-6-7.7-9c0.2-0.5,0.4-0.9,0.6-1.4c0.2,0.2,0.4,0.5,0.6,0.7
					s0.5,0.5,0.7,0.8c0.2,0.2,0.5,0.6,0.7,0.8s0.5,0.6,0.7,0.8c0.9,1,1.8,2.1,2.6,3.1C298.5,57.6,299.3,58.5,300,59.4z"/>
			</g>
			<g>
				<path class="st1" d="M309,53.5c-1.6,0.3-2.8,0.6-3.9,1.1c-2.6-3-5.1-6-7.7-9c1.1-0.5,2.3-0.8,3.9-1.1
					C303.9,47.5,306.5,50.5,309,53.5z"/>
			</g>
			<g>
				<path class="st1" d="M299.1,62.3c-2.6-3-5.1-6-7.7-9c0.1-0.5,0.2-1,0.4-1.5c0.3,0.3,0.6,0.7,0.9,1s0.7,0.8,0.9,1.1
					c0.3,0.3,0.7,0.8,1,1.2s0.7,0.8,1,1.2s0.7,0.8,1,1.2c0.3,0.3,0.7,0.8,1,1.2c0.3,0.3,0.7,0.8,0.9,1.1c0.3,0.3,0.6,0.7,0.9,1
					C299.3,61.3,299.1,61.8,299.1,62.3z"/>
			</g>
			<g>
				<path class="st1" d="M299.1,62.3c0,0.2-0.1,0.4-0.1,0.6c-0.9-1.1-1.9-2.2-2.8-3.3c-1.6-1.9-3.2-3.8-4.8-5.7
					c0-0.2,0.1-0.4,0.1-0.6C294,56.3,296.5,59.3,299.1,62.3z"/>
			</g>
			<g>
				<polygon class="st1" points="291.3,55.7 298.9,64.7 299.8,78.4 292.1,69.4 				"/>
			</g>
			<g>
				<polygon points="291.8,55.7 299.4,64.7 300.3,78.8 292.7,69.8 				"/>
			</g>
			<g>
				<path class="st1" d="M299,62.9c-0.1,0.6-0.1,1.2,0,1.8l-7.7-9c0-0.6,0-1.2,0-1.8c1.4,1.7,2.9,3.4,4.3,5.1
					C296.7,60.3,297.9,61.6,299,62.9z"/>
			</g>
			<g>
				<polygon class="st1" points="306.6,43.9 314.2,52.9 312.9,53 305.2,44.1 				"/>
			</g>
			<g>
				<polygon points="306.1,44.5 313.8,53.4 312.9,53.5 305.3,44.5 				"/>
			</g>
			<g>
				<path class="st1" d="M309,53.5c-2.6-3-5.1-6-7.7-9c1.1-0.2,2.4-0.4,3.9-0.5l7.7,9C311.4,53.2,310.2,53.3,309,53.5z"/>
			</g>
			<g>
				<path d="M305.3,44.5l7.7,9c-6.1,0.6-8.9,1.6-11.1,4.1c-1.8,2.1-2.6,4.5-2.4,7.1l-7.7-9c-0.2-2.6,0.7-5,2.4-7.1
					C296.4,46.1,299.2,45.1,305.3,44.5z"/>
			</g>
			<g>
				<polygon points="278.3,36.3 286,45.2 288.2,79.4 280.5,70.5 				"/>
			</g>
			<g>
				<polygon class="st1" points="317.4,32.8 325,41.8 325.6,49.9 317.9,40.9 				"/>
			</g>
			<g>
				<polygon points="317.9,32.8 325.5,41.8 325.9,47.7 318.3,38.7 				"/>
			</g>
			<g>
				<polygon points="318.3,39.9 326,48.8 325.6,49.9 317.9,40.9 				"/>
			</g>
			<g>
				<polygon class="st1" points="292.1,69.4 299.8,78.4 288.2,79.4 280.5,70.5 				"/>
			</g>
			<g>
				<polygon points="292.7,69.8 300.3,78.8 287.7,80 280.1,71 				"/>
			</g>
			<g>
				<path d="M343.9,34.9l7.7,9c-2.9-3.4-7.6-4.7-12.1-4.3c-4.7,0.4-10.9,2.4-13.6,9.3l-7.7-9c2.7-6.9,8.9-8.8,13.6-9.3
					C336.4,30.2,341,31.5,343.9,34.9z"/>
			</g>
			<g>
				<polygon class="st1" points="318.9,53.2 326.5,62.2 327.4,75.6 319.7,66.7 				"/>
			</g>
			<g>
				<polygon points="319.4,53.2 327,62.1 327.9,76.1 320.3,67.1 				"/>
			</g>
			<g>
				<path class="st1" d="M333.6,41.6l7.7,9c-1.4-1.6-3.4-2-5.1-1.8c-6.8,0.6-10,7.2-9.6,13.4l-7.7-9c-0.4-6.2,2.8-12.8,9.6-13.4
					C330.2,39.6,332.2,39.9,333.6,41.6z"/>
			</g>
			<g>
				<path d="M333.2,41.9l7.7,9c-1.1-1.3-2.7-1.8-4.7-1.7c-6.5,0.6-9.5,6.9-9.1,12.9l-7.7-9c-0.4-6,2.6-12.3,9.1-12.9
					C330.5,40.1,332.1,40.6,333.2,41.9z"/>
			</g>
			<g>
				<polygon points="306.6,43.9 314.2,52.9 315.8,76.7 308.1,67.7 				"/>
			</g>
			<g>
				<path d="M333.6,41.6l7.7,9c1,1.2,1.7,3,1.9,5.8l-7.7-9C335.3,44.6,334.6,42.7,333.6,41.6z"/>
			</g>
			<g>
				<polygon class="st1" points="346.9,42.7 354.5,51.6 355.9,73.1 348.2,64.2 				"/>
			</g>
			<g>
				<polygon points="347.4,42.6 355,51.6 356.4,73.6 348.8,64.6 				"/>
			</g>
			<g>
				<path class="st1" d="M351.6,43.8c1.6,1.9,2.7,4.5,2.9,7.8l-7.7-9c-0.2-3.3-1.3-5.9-2.9-7.8C346.2,37.6,349.3,41.1,351.6,43.8z"
					/>
			</g>
			<g>
				<path d="M344.2,34.4l7.7,9c1.9,2.3,3,5.2,3.2,8.2l-7.7-9C347.2,39.6,346.1,36.7,344.2,34.4z"/>
			</g>
			<g>
				<polygon class="st1" points="319.7,66.7 327.4,75.6 315.8,76.7 308.1,67.7 				"/>
			</g>
			<g>
				<polygon points="320.3,67.1 327.9,76.1 315.3,77.2 307.7,68.3 				"/>
			</g>
			<g>
				<polygon points="335.5,47.4 343.1,56.3 344.3,74.2 336.6,65.2 				"/>
			</g>
			<g>
				<path class="st1" d="M331.9,30.6c7-0.6,14.4,2.8,15,12.1l1.4,21.5l-11.6,1.1l-1.1-17.9c-0.4-6.8-4-7.9-7-7.6
					c-6.8,0.6-10,7.2-9.6,13.4l0.9,13.5l-11.6,1.1L306.8,44l-1.3,0.1c-6.3,0.6-9.1,1.7-11.4,4.3c-1.9,2.2-2.8,4.7-2.6,7.4l0.9,13.7
					l-11.6,1.1l-2.2-34.2l11.6-1.1l0.7,10.5l0.4-1.1c2.4-6.5,6.3-9.7,12.8-10.3v-0.2l13.6-1.2l0.5,8.1l0.4-1
					C321,33,327.2,31,331.9,30.6z"/>
			</g>
			<g>
				<polygon class="st1" points="348.2,64.2 355.9,73.1 344.3,74.2 336.6,65.2 				"/>
			</g>
			<g>
				<polygon points="348.8,64.6 356.4,73.6 343.8,74.7 336.2,65.8 				"/>
			</g>
			<g>
				<path d="M331.8,30.1c10.1-0.9,15.1,5.6,15.5,12.5l1.4,22l-12.6,1.2L335,47.4c-0.3-5-2.6-7.5-6.5-7.2c-6.5,0.6-9.5,6.9-9.1,12.9
					l0.9,14l-12.6,1.2l-1.5-23.8l-0.8,0.1c-6.1,0.6-8.9,1.6-11.1,4.1c-1.8,2.1-2.6,4.5-2.4,7.1l0.9,14.2l-12.7,1l-2.3-35.2l12.6-1.2
					l0.6,8.7c2.5-6,6.5-9,12.8-9.6v0.2v0.2c-6.5,0.6-10.4,3.8-12.8,10.3l-0.4,1.1L290,35.2l-11.6,1.1l2.2,34.2l11.6-1.1l-0.9-13.7
					c-0.2-2.7,0.7-5.2,2.6-7.4c2.3-2.6,5.1-3.7,11.4-4.3l1.3-0.1l1.5,23.8l11.6-1.1l-0.9-13.5c-0.4-6.2,2.8-12.8,9.6-13.4
					c2.9-0.3,6.5,0.8,7,7.6l1.1,17.9l11.6-1.1l-1.4-21.5c-0.6-9.2-8-12.7-15-12.1c-4.7,0.4-10.9,2.4-13.6,9.3l-0.4,1l-0.5-8.1h0.5
					l0.4,5.9C320.6,33.7,325.3,30.7,331.8,30.1z"/>
			</g>
		</g>
		<g class="st0">
			<g>
				<polygon points="60.5,104 68.1,113 55.1,114.1 47.4,105.2 				"/>
			</g>
			<g>
				<polygon class="st1" points="60.5,104 68.1,113 70.4,149.2 62.8,140.2 				"/>
			</g>
			<g>
				<polygon points="60.9,103.5 68.6,112.4 70.9,148.7 63.2,139.7 				"/>
			</g>
			<g>
				<path d="M87.9,120.5l7.7,9c-0.3,0-0.5,0-0.7,0c-0.5,0-0.9,0.2-1,0.3l-7.7-9c0.1-0.1,0.5-0.3,1-0.3
					C87.4,120.5,87.6,120.5,87.9,120.5z"/>
			</g>
			<g>
				<polygon points="47.4,105.2 55.1,114.1 58.2,162.2 50.5,153.3 				"/>
			</g>
			<g>
				<path d="M89.2,121.2l7.7,9c-0.4-0.5-0.9-0.7-1.3-0.7l-7.7-9C88.3,120.5,88.8,120.8,89.2,121.2z"/>
			</g>
			<g>
				<path class="st1" d="M89.2,121.2l7.7,9c0,0.1,0.1,0.1,0.1,0.2l-7.7-9C89.3,121.4,89.3,121.3,89.2,121.2z"/>
			</g>
			<g>
				<path d="M89.6,120.9l7.7,9c0.1,0.1,0.1,0.1,0.2,0.2l-7.7-9C89.7,121.1,89.7,121,89.6,120.9z"/>
			</g>
			<g>
				<path d="M86.2,120.8l7.7,9c-3.2,2.5-5.6,5.8-6.9,9.6l-7.7-9C80.6,126.6,83,123.3,86.2,120.8z"/>
			</g>
			<g>
				<path class="st1" d="M96.3,133.3c-0.7,0.5-1.3,1.1-1.9,1.7c-2.6-3-5.1-6-7.7-9c0.6-0.6,1.2-1.2,1.9-1.7
					C90.9,127,94,130.6,96.3,133.3z"/>
			</g>
			<g>
				<path class="st1" d="M89.4,121.4l7.7,9c0.3,0.5,0.4,1.1,0.3,1.6s-0.5,1-1,1.3l-7.7-9c0.5-0.3,0.9-0.8,1-1.3
					S89.7,121.9,89.4,121.4z"/>
			</g>
			<g>
				<path class="st1" d="M94,135.5c-2.6-3-5.1-6-7.7-9c0.2-0.2,0.3-0.4,0.5-0.5l7.7,9C94.3,135.1,94.1,135.3,94,135.5z"/>
			</g>
			<g>
				<path d="M87.4,141.6l-7.7-9c-0.5-0.6-0.7-1.4-0.4-2.2l7.7,9C86.7,140.2,86.9,141,87.4,141.6z"/>
			</g>
			<g>
				<path d="M89.8,121.1l7.7,9c0.4,0.6,0.5,1.3,0.3,2s-0.6,1.2-1.2,1.6l-7.7-9c0.6-0.4,1-0.9,1.2-1.6
					C90.3,122.4,90.2,121.8,89.8,121.1z"/>
			</g>
			<g>
				<path class="st1" d="M94,135.5c-0.5,0.6-1,1.2-1.4,1.9c-2.6-3-5.1-6-7.7-9c0.4-0.7,0.9-1.3,1.4-1.9
					C88.9,129.5,91.4,132.5,94,135.5z"/>
			</g>
			<g>
				<path class="st1" d="M92.6,137.5c-2.6-3-5.1-6-7.7-9c0,0,0-0.1,0.1-0.1c1.3,1.5,2.6,3,3.8,4.5C90.1,134.4,91.3,135.9,92.6,137.5
					C92.6,137.4,92.6,137.5,92.6,137.5z"/>
			</g>
			<g>
				<path class="st1" d="M87.4,141.6l-7.7-9c0.2,0.3,0.5,0.5,0.9,0.6l7.7,9C87.9,142.1,87.6,141.8,87.4,141.6z"/>
			</g>
			<g>
				<path d="M87,141.9l-7.7-9c0.3,0.3,0.7,0.6,1.1,0.8l7.7,9C87.7,142.5,87.3,142.2,87,141.9z"/>
			</g>
			<g>
				<path class="st1" d="M92.6,137.5c-0.6,1-1.1,2.1-1.5,3.2c-2.6-3-5.1-6-7.7-9c0.4-1.1,0.9-2.2,1.5-3.2
					C87.4,131.5,90,134.5,92.6,137.5z"/>
			</g>
			<g>
				<path d="M88.9,124.7l7.7,9c-2.2,1.7-4,4.2-5.1,7.1l-7.7-9C84.9,129,86.7,126.4,88.9,124.7z"/>
			</g>
			<g>
				<path class="st1" d="M89.1,142.3c-0.3,0-0.5,0-0.8-0.1l-7.7-9c0.3,0.1,0.5,0.1,0.8,0.1c0.9-0.1,1.7-0.7,2-1.6l0,0
					c0.3,0.3,0.6,0.7,0.9,1s0.7,0.8,0.9,1.1c0.3,0.3,0.7,0.8,1,1.2s0.7,0.8,1,1.2s0.7,0.8,1,1.2c0.3,0.3,0.7,0.8,1,1.2
					c0.3,0.3,0.7,0.8,0.9,1.1c0.3,0.3,0.6,0.7,0.9,1l0,0C90.7,141.6,90,142.2,89.1,142.3z"/>
			</g>
			<g>
				<path class="st1" d="M87.2,120.5c0.2,0,0.4,0,0.7,0c0.5,0,1.1,0.3,1.5,0.9c0.3,0.5,0.4,1.1,0.3,1.6s-0.5,1-1,1.3
					c-2.3,1.8-4.2,4.4-5.3,7.4c-0.3,0.9-1,1.5-2,1.6c-0.3,0-0.5,0-0.8-0.1c-1.1-0.3-1.7-1.6-1.3-2.8c1.3-3.8,3.7-7.1,6.9-9.6
					C86.4,120.7,86.7,120.5,87.2,120.5z"/>
			</g>
			<g>
				<path d="M83.8,131.9l7.7,9c-0.4,1.1-1.3,1.8-2.4,1.9c-0.3,0-0.7,0-1-0.1l-7.7-9c0.3,0.1,0.6,0.1,1,0.1
					C82.6,133.7,83.5,133,83.8,131.9z"/>
			</g>
			<g>
				<path d="M89.8,121.1c0.4,0.6,0.5,1.3,0.3,2s-0.6,1.2-1.2,1.6c-2.2,1.7-4,4.2-5.1,7.1c-0.4,1.1-1.3,1.8-2.4,1.9
					c-0.3,0-0.7,0-1-0.1c-1.3-0.4-2.1-2-1.7-3.4c1.4-3.9,3.8-7.3,7.1-9.8c0.2-0.2,0.7-0.4,1.3-0.4c0.2,0,0.5,0,0.8,0
					C88.5,120.1,89.3,120.4,89.8,121.1z M89.6,123c0.1-0.5,0-1.1-0.3-1.6c-0.4-0.6-1-0.9-1.5-0.9c-0.3,0-0.5,0-0.7,0
					c-0.5,0-0.9,0.2-1,0.3c-3.2,2.5-5.6,5.8-6.9,9.6c-0.4,1.2,0.2,2.5,1.3,2.8c0.3,0.1,0.5,0.1,0.8,0.1c0.9-0.1,1.7-0.7,2-1.6
					c1.1-3,2.9-5.6,5.3-7.4C89.2,124,89.5,123.5,89.6,123"/>
			</g>
			<g>
				<polygon points="85.8,137.9 93.5,146.9 70.4,149.2 62.8,140.2 				"/>
			</g>
			<g>
				<path d="M89.1,129.4l7.7,9c-2.1,2.4-3.2,5.3-3.3,8.5l-7.7-9C85.9,134.6,87,131.8,89.1,129.4z"/>
			</g>
			<g>
				<path d="M108.4,127.6l7.7,9c-2.9-2.4-6.3-3.4-10.1-3.1c-3.8,0.3-6.9,2-9.2,4.8l-7.7-9c2.4-2.9,5.5-4.5,9.2-4.8
					C102.1,124.2,105.5,125.3,108.4,127.6z"/>
			</g>
			<g>
				<path d="M110.3,129.5l7.7,9c-0.6-0.7-1.2-1.4-1.9-1.9l-7.7-9C109.1,128.2,109.8,128.9,110.3,129.5z"/>
			</g>
			<g>
				<path d="M110.6,129.1l7.7,9c0.1,0.1,0.1,0.2,0.2,0.3l-7.7-9C110.8,129.3,110.7,129.2,110.6,129.1z"/>
			</g>
			<g>
				<polygon class="st1" points="110.7,129.9 118.3,138.9 118.6,139.2 110.9,130.2 				"/>
			</g>
			<g>
				<polygon points="111.1,129.9 118.7,138.9 118.6,139.2 110.9,130.2 				"/>
			</g>
			<g>
				<path class="st1" d="M118,138.5c0.1,0.1,0.2,0.3,0.3,0.4l-7.7-9c-0.1-0.1-0.2-0.3-0.3-0.4C112.6,132.2,115.7,135.8,118,138.5z"
					/>
			</g>
			<g>
				<polygon class="st1" points="89.8,149.7 97.5,158.6 58.2,162.2 50.5,153.3 				"/>
			</g>
			<g>
				<polygon points="89.6,150.2 97.3,159.2 57.7,162.8 50.1,153.8 				"/>
			</g>
			<g>
				<polygon points="89.8,149.7 97.5,158.6 98.2,159.6 90.6,150.6 				"/>
			</g>
			<g>
				<path class="st1" d="M107.6,154.2c-0.7-0.9-1.5-1.7-2.2-2.6c-1.8-2.1-3.7-4.3-5.5-6.4c0.7-3.3,2.8-6.2,5.7-8c2.6,3,5.1,6,7.7,9
					C110.5,147.9,108.4,150.8,107.6,154.2z"/>
			</g>
			<g>
				<path d="M100.3,162.1l-7.7-9c-0.9-1.1-1.6-1.9-2-2.5l7.7,9C98.7,160.2,99.4,161,100.3,162.1z"/>
			</g>
			<g>
				<path class="st1" d="M107.4,157.9c-2.6-3-5.1-6-7.7-9c0-0.1,0-0.2,0-0.3c-0.1-1.2,0-2.3,0.3-3.4c0.9,1,1.8,2.1,2.7,3.1
					c1.1,1.3,2.2,2.5,3.2,3.8c0.1,0.1,0.2,0.2,0.3,0.3c0,0.1,0.1,0.1,0.2,0.2c0.1,0.1,0.2,0.2,0.3,0.4c0,0.1,0.1,0.1,0.2,0.2
					c0.1,0.1,0.2,0.2,0.3,0.3c0,0.1,0.1,0.1,0.1,0.2c0.1,0.2,0.3,0.3,0.4,0.5c-0.2,1.1-0.3,2.3-0.3,3.4
					C107.4,157.7,107.4,157.8,107.4,157.9z"/>
			</g>
			<g>
				<polygon points="150,109.3 157.6,118.3 157.7,118.4 150.1,109.5 				"/>
			</g>
			<g>
				<polygon points="149.7,109.8 157.3,118.8 145.3,119.9 137.6,110.9 				"/>
			</g>
			<g>
				<path d="M132.2,125.3l7.7,9c-2.7-2.3-6-3.3-9.7-3s-7,2-9.6,5c-0.6,0.7-1.2,1.6-1.8,2.6l-7.7-9c0.6-1,1.2-1.9,1.8-2.6
					c2.6-2.9,5.9-4.6,9.6-5C126.2,122,129.5,123,132.2,125.3z"/>
			</g>
			<g>
				<path class="st1" d="M107.4,157.9c0.2,2.6,1.3,4.9,2.8,6.7l-7.7-9c-1.6-1.8-2.6-4.1-2.8-6.7c0.3,0.3,0.6,0.7,0.8,1
					c0.3,0.3,0.6,0.7,0.9,1s0.6,0.8,0.9,1.1s0.7,0.8,0.9,1.1c0.3,0.3,0.7,0.8,0.9,1.1c0.3,0.3,0.6,0.8,0.9,1.1s0.6,0.7,0.9,1
					s0.6,0.7,0.8,1c0,0,0,0,0.1,0.1c0,0,0,0.1,0.1,0.1c0,0,0,0.1,0.1,0.1c0,0,0,0.1,0.1,0.1s0,0.1,0.1,0.1
					C107.2,157.8,107.2,157.9,107.4,157.9C107.3,157.8,107.3,157.8,107.4,157.9L107.4,157.9L107.4,157.9z"/>
			</g>
			<g>
				<path class="st1" d="M113.3,146.1c-2.6-3-5.1-6-7.7-9c1.6-1,3.5-1.7,5.5-1.9c4.1-0.4,7.9,1.3,10.4,4.2l7.7,9
					c-2.4-2.9-6.2-4.5-10.4-4.2C116.9,144.5,115,145.1,113.3,146.1z"/>
			</g>
			<g>
				<path d="M121.2,139.8l7.7,9c-2.3-2.7-6-4.3-10-4c-6.5,0.6-11.4,6.3-11,12.8c0.2,2.6,1.2,4.9,2.7,6.8l-7.7-9
					c-1.6-1.8-2.6-4.2-2.7-6.8c-0.4-6.5,4.5-12.2,11-12.8C115.2,135.4,118.8,137,121.2,139.8z"/>
			</g>
			<g>
				<path d="M120.4,140.4l7.7,9c-2.1-2.5-5.4-3.9-9-3.5c-6,0.5-10.4,5.7-10,11.6c0.2,2.4,1.1,4.6,2.5,6.2l-7.7-9
					c-1.4-1.7-2.3-3.8-2.5-6.2c-0.4-6,4-11.1,10-11.6C115,136.5,118.2,138,120.4,140.4z"/>
			</g>
			<g>
				<path class="st1" d="M118.1,153.3c-0.4,0.2-0.8,0.5-1.2,0.9c-2.6-3-5.1-6-7.7-9c0.3-0.4,0.7-0.7,1.2-0.9
					c0.2,0.2,0.5,0.6,0.7,0.8c0.2,0.3,0.5,0.6,0.7,0.9c0.2,0.3,0.5,0.6,0.8,0.9c0.2,0.3,0.5,0.6,0.8,0.9s0.5,0.6,0.8,0.9
					c0.2,0.3,0.5,0.6,0.8,0.9c0.2,0.3,0.5,0.6,0.7,0.9c0.2,0.2,0.5,0.6,0.7,0.8C116.9,151.9,117.5,152.6,118.1,153.3z"/>
			</g>
			<g>
				<path class="st1" d="M118.1,153.3c-2.6-3-5.1-6-7.7-9c0.1-0.1,0.3-0.1,0.4-0.2c2.6,3,5.1,6,7.7,9
					C118.4,153.1,118.3,153.2,118.1,153.3z"/>
			</g>
			<g>
				<path class="st1" d="M117,154.1c-0.3,0.4-0.5,0.8-0.7,1.2c-2.6-3-5.1-6-7.7-9c0.2-0.4,0.4-0.9,0.7-1.2
					C111.9,148.2,114.4,151.2,117,154.1z"/>
			</g>
			<g>
				<path class="st1" d="M116.2,155.5c-2.6-3-5.1-6-7.7-9v-0.1c0.3,0.3,0.6,0.7,0.9,1s0.7,0.8,0.9,1.1c0.3,0.3,0.7,0.8,1,1.2
					s0.7,0.8,1,1.2c1.3,1.5,2.6,3,3.8,4.5C116.2,155.4,116.2,155.4,116.2,155.5z"/>
			</g>
			<g>
				<path class="st1" d="M119.4,152.9c-0.3,0-0.6,0.1-0.9,0.2c-2.6-3-5.1-6-7.7-9c0.3-0.1,0.6-0.2,0.9-0.2c0.3,0.3,0.6,0.7,0.9,1
					s0.7,0.8,0.9,1.1c0.3,0.3,0.7,0.8,1,1.2s0.7,0.8,1,1.2C116.9,149.9,118.1,151.4,119.4,152.9z"/>
			</g>
			<g>
				<path class="st1" d="M120.4,152.9c-0.3-0.1-0.7-0.1-1,0c-2.6-3-5.1-6-7.7-9c0.4,0,0.7,0,1,0C115.3,147,117.9,150,120.4,152.9z"
					/>
			</g>
			<g>
				<path class="st1" d="M116.2,155.5c-0.1,0.4-0.2,0.9-0.2,1.3c-2.6-3-5.1-6-7.7-9c0-0.5,0-0.9,0.2-1.3c0.1,0.1,0.2,0.3,0.3,0.4
					c0.1,0.1,0.2,0.3,0.4,0.4c0.1,0.1,0.1,0.1,0.2,0.2C111.7,150.2,113.9,152.8,116.2,155.5z"/>
			</g>
			<g>
				<path class="st1" d="M120.8,153c-0.1,0-0.2-0.1-0.3-0.1c-2.6-3-5.1-6-7.7-9c0.1,0,0.2,0,0.3,0.1
					C115.7,147.1,118.2,150,120.8,153z"/>
			</g>
			<g>
				<path class="st1" d="M116.1,156.8c0,0.2,0,0.3,0.1,0.5c-2.6-3-5.1-6-7.7-9c0-0.1,0-0.3-0.1-0.5c0.3,0.3,0.6,0.7,0.9,1
					s0.7,0.8,0.9,1.1c0.3,0.3,0.7,0.8,1,1.2s0.7,0.8,1,1.2s0.7,0.8,1,1.2c0.3,0.3,0.7,0.8,1,1.2c0.3,0.3,0.7,0.8,0.9,1.1
					C115.4,156.1,115.8,156.5,116.1,156.8z"/>
			</g>
			<g>
				<path d="M133.9,127l7.7,9c-0.5-0.6-1.1-1.1-1.7-1.6l-7.7-9C132.9,125.9,133.4,126.4,133.9,127z"/>
			</g>
			<g>
				<path class="st1" d="M100.3,162.1l-7.7-9c1.3,1.5,2.9,3.4,4.9,5.5l7.7,9C103.2,165.4,101.5,163.6,100.3,162.1z"/>
			</g>
			<g>
				<path class="st1" d="M116.4,158.1c-2.6-3-5.1-6-7.7-9c-0.1-0.3-0.2-0.5-0.3-0.8c2.6,3,5.1,6,7.7,9
					C116.2,157.6,116.3,157.8,116.4,158.1z"/>
			</g>
			<g>
				<path class="st1" d="M116.4,158.1c0,0.1,0.1,0.1,0.1,0.2c-2.6-3-5.1-6-7.7-9c0-0.1-0.1-0.1-0.1-0.2c0.2,0.2,0.5,0.6,0.7,0.8
					c0.2,0.3,0.5,0.6,0.7,0.9c0.2,0.3,0.5,0.6,0.8,0.9c0.2,0.3,0.5,0.6,0.8,0.9c0.2,0.3,0.5,0.6,0.8,0.9c0.2,0.3,0.5,0.6,0.8,0.9
					c0.2,0.3,0.5,0.6,0.7,0.9c0.2,0.2,0.5,0.6,0.7,0.8c0.1,0.1,0.1,0.2,0.2,0.2c0.1,0.1,0.2,0.2,0.2,0.3c0.1,0.1,0.2,0.2,0.2,0.3
					c0.1,0.1,0.2,0.2,0.2,0.3c0.1,0.1,0.2,0.2,0.2,0.3c0.1,0.1,0.2,0.2,0.2,0.3c0.1,0.1,0.2,0.2,0.2,0.3
					C116.2,157.9,116.3,158,116.4,158.1z"/>
			</g>
			<g>
				<path class="st1" d="M116.5,158.3c0.1,0.2,0.3,0.5,0.4,0.7l-7.7-9c-0.2-0.2-0.3-0.4-0.4-0.7c1.3,1.5,2.6,3,3.8,4.5
					c0.2,0.2,0.4,0.4,0.5,0.6c0.1,0.2,0.3,0.4,0.5,0.6c0.3,0.3,0.7,0.8,1,1.2c0.1,0.2,0.3,0.4,0.5,0.6c0.3,0.3,0.6,0.8,0.9,1.1
					C116.2,157.9,116.4,158.1,116.5,158.3z"/>
			</g>
			<g>
				<path d="M114.9,145.2l7.7,9c0.5,0.5,0.8,1.2,0.8,2c0.1,2-1.5,3.8-3.5,4c-1.2,0.1-2.3-0.4-3-1.2l-7.7-9c0.7,0.8,1.8,1.3,3,1.2
					c2-0.2,3.6-2,3.5-4C115.6,146.4,115.3,145.7,114.9,145.2z"/>
			</g>
			<g>
				<path class="st1" d="M120.8,153c-0.1-0.1-0.2-0.2-0.3-0.3c-0.7-0.8-1.4-1.6-2.1-2.4c-0.8-0.9-1.6-1.8-2.4-2.8
					c-1-1.1-2-2.3-2.9-3.4c0.7,0.2,1.3,0.6,1.7,1.1l7.7,9C122.1,153.6,121.5,153.2,120.8,153z"/>
			</g>
			<g>
				<path d="M110.8,151c0.4,0.2,0.9,0.2,1.4,0.2c2-0.2,3.6-2,3.5-4c0-0.1,0-0.2,0-0.3l-1.2-1.4c-0.6-0.7-1.6-1.2-2.7-1.1
					c-1.7,0.2-3,1.6-2.9,3.4c0,0.7,0.3,1.4,0.7,1.9L110.8,151z"/>
			</g>
			<g>
				<path d="M100.5,162.8l7.7,9c-1-1.2-2.1-2.5-3.3-3.8c-2-2.2-3.7-4.1-5-5.6l-7.7-9c1.3,1.5,3,3.4,5,5.6
					C98.3,160.3,99.4,161.6,100.5,162.8z"/>
			</g>
			<g>
				<path class="st1" d="M100.8,162.5l7.7,9c-1-1.2-2.1-2.5-3.3-3.8l-7.7-9C98.7,160,99.8,161.3,100.8,162.5z"/>
			</g>
			<g>
				<path class="st1" d="M128,149.4c1.4,1.6,2.3,3.7,2.4,6.1c-2.6-3-5.1-6-7.7-9c-0.2-2.4-1-4.5-2.4-6.1
					C122.7,143.1,125.7,146.7,128,149.4z"/>
			</g>
			<g>
				<path class="st1" d="M120.3,167.2c-3.6,0.3-6.8-1.1-8.9-3.5l-7.7-9c2.1,2.5,5.3,3.8,8.9,3.5
					C115.2,161.2,117.8,164.2,120.3,167.2z"/>
			</g>
			<g>
				<path class="st1" d="M130.5,155.5c0.4,5.9-4.2,11.2-10.1,11.7c-2.6-3-5.1-6-7.7-9c6-0.5,10.5-5.8,10.1-11.7
					c1.3,1.5,2.6,3,3.8,4.5c0.3,0.4,0.7,0.8,1,1.2c0.1,0.2,0.3,0.4,0.5,0.6c0.3,0.3,0.7,0.8,1,1.1s0.6,0.8,0.9,1.1
					C130.1,155.1,130.4,155.3,130.5,155.5z"/>
			</g>
			<g>
				<path d="M120.7,140.2l7.7,9c1.5,1.7,2.4,3.9,2.5,6.3c0.4,6.2-4.3,11.7-10.6,12.2c-3.7,0.3-7.1-1.2-9.3-3.8l-7.7-9
					c2.2,2.6,5.6,4.1,9.3,3.8c6.2-0.6,11-6.1,10.6-12.2C123.1,144.1,122.2,141.9,120.7,140.2z"/>
			</g>
			<g>
				<path d="M121.6,139.5l7.7,9c1.6,1.9,2.6,4.3,2.8,6.9c0.4,6.8-4.8,12.8-11.6,13.4c-4.1,0.4-7.8-1.3-10.2-4.1l-7.7-9
					c2.4,2.8,6.2,4.5,10.2,4.1c6.8-0.6,12-6.6,11.6-13.4C124.2,143.7,123.2,141.3,121.6,139.5z"/>
			</g>
			<g>
				<path d="M100.8,162.5l7.7,9c3.1,3.6,5.4,6.5,6.7,8.5l-7.7-9C106.2,168.9,103.9,166,100.8,162.5z"/>
			</g>
			<g>
				<path class="st1" d="M142.9,152.3c-1.1,3-3.4,7-6.7,11.9c-2.6-3-5.1-6-7.7-9c3.4-4.9,5.7-8.9,6.7-11.9
					C137.5,146,140.6,149.6,142.9,152.3z"/>
			</g>
			<g>
				<polygon class="st1" points="116.8,178.2 124.4,187.1 119,187.6 111.4,178.7 				"/>
			</g>
			<g>
				<path d="M107.6,171l7.7,9c1.4,2.2,3.4,6.8,3.8,7.7l-7.7-9C111,177.7,109,173.1,107.6,171z"/>
			</g>
			<g>
				<path class="st1" d="M132.2,125.3c2.8,2.3,4.3,5.3,4.5,8.9c0.2,2.9-0.3,6-1.5,9.1c-1.1,3-3.4,7-6.7,11.9
					c-3.8,5.6-6.9,10.7-8.9,14.7c-1.2,2.4-2.5,7.2-2.8,8.2l-5.4,0.5c-0.4-0.9-2.4-5.5-3.8-7.7c-1.8-2.7-5.3-6.9-10-12.3
					c-3.4-3.7-6-6.7-7-8l-0.7-0.9l-39.3,3.6l-3.1-48.1l13-1.2l2.3,36.2l23.1-2.1c0.1-3.5,1.2-6.4,3.3-8.8c2.4-2.8,5.5-4.5,9.2-4.8
					c3.8-0.3,7.1,0.7,10.1,3.1c0.9,0.6,1.7,1.5,2.3,2.3l0.2,0.3l0.2-0.3c0.6-1,1.2-1.9,1.8-2.6c2.6-2.9,5.9-4.6,9.6-5
					C126.2,122,129.5,123,132.2,125.3z M112.8,159.8c6.8-0.6,12-6.6,11.6-13.4c-0.4-6.7-6.3-11.7-13.2-11.1
					c-6.8,0.6-11.9,6.6-11.5,13.3C100.2,155.4,106,160.4,112.8,159.8"/>
			</g>
			<g>
				<path class="st1" d="M133.9,127l7.7,9c1.7,2,2.7,4.4,2.8,7.2l-7.7-9C136.6,131.4,135.7,129,133.9,127z"/>
			</g>
			<g>
				<path class="st1" d="M136.7,134.2l7.7,9c0.2,2.9-0.3,6-1.5,9.1l-7.7-9C136.4,140.2,136.9,137.1,136.7,134.2z"/>
			</g>
			<g>
				<path d="M111.3,136.4c6.2-0.6,11.6,4,12,10.1c0.4,6.2-4.3,11.7-10.6,12.2c-6.2,0.6-11.5-4-11.9-10.2S105,137,111.3,136.4z
					 M112.7,158.2c6-0.5,10.5-5.8,10.1-11.7c-0.4-6-5.4-10.2-11.5-9.6c-6,0.5-10.4,5.7-10,11.6C101.7,154.5,106.7,158.8,112.7,158.2
					"/>
			</g>
			<g>
				<path class="st1" d="M111.3,136.9c6.1-0.6,11.1,3.7,11.5,9.6c0.4,5.9-4.2,11.2-10.1,11.7c-6,0.5-11-3.7-11.4-9.7
					S105.3,137.4,111.3,136.9z M112.2,151.2c2-0.2,3.6-2,3.5-4s-1.9-3.4-3.9-3.2s-3.5,1.9-3.4,3.9
					C108.5,149.9,110.2,151.4,112.2,151.2"/>
			</g>
			<g>
				<path d="M111.2,135.3c6.8-0.6,12.7,4.3,13.2,11.1c0.4,6.8-4.8,12.8-11.6,13.4c-6.8,0.6-12.6-4.4-13.1-11.2
					C99.3,141.9,104.4,135.9,111.2,135.3z M112.7,159.3c6.6-0.6,11.5-6.4,11.1-12.9s-6.1-11.2-12.6-10.6c-6.5,0.6-11.4,6.3-11,12.8
					S106.3,159.9,112.7,159.3"/>
			</g>
			<g>
				<polygon points="117.2,178.5 124.8,187.4 118.7,188.1 111.1,179.2 				"/>
			</g>
			<g>
				<path class="st1" d="M127.2,178.9c-1.2,2.4-2.5,7.2-2.8,8.2l-7.7-9c0.3-1,1.6-5.8,2.8-8.2l0,0l0,0
					C122.1,172.9,124.7,175.9,127.2,178.9c-2.6-3-5.1-6-7.7-9c2-4,5.1-9.1,8.9-14.7l0,0c2.6,3,5.1,6,7.7,9l0,0
					C132.3,169.8,129.2,174.9,127.2,178.9z"/>
			</g>
			<g>
				<path d="M132.5,125c2.9,2.4,4.5,5.5,4.6,9.2c0.2,3-0.3,6.1-1.5,9.3c-1.1,3.1-3.3,7-6.8,12c-3.8,5.6-6.9,10.6-8.9,14.7
					c-1.3,2.6-2.8,8.2-2.8,8.3l-6.1,0.7c-0.1-0.2-2.4-5.6-3.9-8c-1.8-2.7-5.3-6.9-10-12.3c-3.4-3.8-6-6.7-7-8.1l-0.6-0.7l-39.6,3.6
					l-3.1-49.1l14-1.3l2.3,36.2l22.1-2c0.1-3.3,1.3-6.2,3.4-8.6c2.5-3,5.7-4.6,9.6-5s7.4,0.7,10.4,3.2c0.8,0.6,1.5,1.4,2.1,2.1
					c0.4-0.7,1-1.6,1.7-2.4c2.7-3,6.1-4.8,10-5.1C126.3,121.5,129.7,122.6,132.5,125z M136.7,134.2c-0.1-3.6-1.6-6.6-4.5-8.9
					c-2.7-2.3-6-3.3-9.7-3s-7,2-9.6,5c-0.6,0.7-1.2,1.6-1.8,2.6l-0.2,0.3l-0.2-0.3c-0.6-0.8-1.4-1.7-2.3-2.3
					c-2.9-2.4-6.3-3.4-10.1-3.1c-3.8,0.3-6.9,2-9.2,4.8c-2.1,2.4-3.2,5.3-3.3,8.5l-23.1,2.3L60.5,104l-13,1.2l3.1,48.1l39.3-3.6
					l0.7,0.9c1,1.4,3.5,4.3,7,8c4.8,5.4,8.2,9.6,10,12.3c1.4,2.2,3.4,6.8,3.8,7.7l5.4-0.5c0.3-1,1.6-5.8,2.8-8.2
					c2-4,5.1-9.1,8.9-14.7c3.4-4.9,5.7-8.9,6.7-11.9C136.4,140.2,136.9,137.1,136.7,134.2"/>
			</g>
			<g>
				<path d="M115.7,147.2c-0.1-2-1.9-3.4-3.9-3.2s-3.5,1.9-3.4,3.9s1.9,3.5,3.8,3.3C114.2,151,115.8,149.2,115.7,147.2z
					 M112.2,150.7c-1.7,0.2-3.2-1.1-3.3-2.9c-0.1-1.7,1.2-3.2,2.9-3.4c1.8-0.2,3.3,1.1,3.4,2.8C115.3,148.9,113.9,150.5,112.2,150.7
					"/>
			</g>
			<g>
				<path d="M134.3,126.7l7.7,9c1.8,2.1,2.7,4.6,2.9,7.5l-7.7-9C137.1,131.3,136.1,128.8,134.3,126.7z"/>
			</g>
			<g>
				<polygon points="178.9,107.2 186.5,116.1 174.2,117.2 166.6,108.3 				"/>
			</g>
			<g>
				<path class="st1" d="M119.6,170L119.6,170L119.6,170c0.2,0.2,0.4,0.4,0.6,0.6c0.2,0.2,0.4,0.5,0.6,0.7s0.4,0.5,0.6,0.7
					s0.4,0.5,0.6,0.7s0.4,0.5,0.6,0.7s0.4,0.5,0.6,0.7s0.4,0.5,0.6,0.7s0.4,0.5,0.6,0.7C122.8,173.7,121.2,171.8,119.6,170z"/>
			</g>
			<g>
				<path d="M137.2,134.2l7.7,9c0.2,3-0.3,6.1-1.5,9.3c-1.1,3.1-3.3,7-6.8,12c-3.8,5.6-6.9,10.6-8.9,14.7c-1.3,2.6-2.8,8.2-2.8,8.3
					l-7.7-9c0-0.1,1.5-5.7,2.8-8.3c2-4,5.1-9.1,8.9-14.7c3.5-5,5.7-8.9,6.8-12C136.9,140.3,137.4,137.2,137.2,134.2z"/>
			</g>
			<g>
				<path d="M141.3,139.8l7.7,9c-0.5,0.4-0.7,0.9-0.8,1.4l-7.7-9C140.6,140.7,140.8,140.3,141.3,139.8z"/>
			</g>
			<g>
				<path d="M143.1,139.4l7.7,9c-0.2,0-0.4,0-0.6,0c-0.4,0-0.8,0.2-1.1,0.5l-7.7-9c0.3-0.3,0.7-0.4,1.1-0.5
					C142.6,139.3,142.8,139.3,143.1,139.4z"/>
			</g>
			<g>
				<path d="M144.4,140.2l7.7,9c-0.4-0.4-0.8-0.7-1.4-0.8l-7.7-9C143.6,139.5,144.1,139.7,144.4,140.2z"/>
			</g>
			<g>
				<path class="st1" d="M152.1,149.1c0.4,0.4,0.6,1,0.7,1.7c-2.3-2.6-4.5-5.3-6.8-7.9l-0.9-1c0-0.7-0.3-1.3-0.7-1.7
					C146.7,142.9,149.8,146.4,152.1,149.1z"/>
			</g>
			<g>
				<path d="M144.8,139.8l7.7,9c0.5,0.5,0.7,1.2,0.8,2l-7.7-9C145.6,141.1,145.3,140.4,144.8,139.8z"/>
			</g>
			<g>
				<polygon class="st1" points="149.7,109.8 157.3,118.8 167.4,140.3 159.8,131.3 				"/>
			</g>
			<g>
				<polygon points="150.1,109.5 157.7,118.4 167.3,138.9 159.7,129.9 				"/>
			</g>
			<g>
				<polygon points="166.6,108.3 174.2,117.2 167.4,140.3 159.8,131.3 				"/>
			</g>
			<g>
				<path d="M143.4,163.4l-7.7-9c-0.3-0.4-0.6-1-0.6-1.5c0-0.6,0.2-1.2,0.7-1.6c2.2-2,3.9-6.6,4.7-10l7.7,9c-0.8,3.4-2.5,8.1-4.7,10
					c-0.5,0.4-0.7,1.1-0.7,1.6C142.8,162.4,143,163,143.4,163.4z"/>
			</g>
			<g>
				<path class="st1" d="M143.4,163.4L143.4,163.4l-7.7-9c0,0,0,0,0,0.1C138,157.1,141.1,160.7,143.4,163.4z"/>
			</g>
			<g>
				<path class="st1" d="M145.2,164.1c-0.6,0.1-1.4-0.2-1.8-0.7l-7.7-9c0.5,0.5,1.2,0.8,1.8,0.7
					C140.1,158.2,142.7,161.1,145.2,164.1z"/>
			</g>
			<g>
				<path class="st1" d="M145.3,164.1L145.3,164.1c-2.6-3-5.2-6-7.7-9l0,0c0.3,0.3,0.6,0.7,0.9,1c0.3,0.3,0.6,0.8,0.9,1.1
					c0.3,0.3,0.7,0.8,1,1.1s0.7,0.8,1,1.1s0.7,0.8,1,1.1s0.7,0.8,1,1.1s0.6,0.8,0.9,1.1c0.3,0.3,0.6,0.7,0.9,1l0,0l0,0l0,0l0,0l0,0
					C145.2,164,145.2,164.1,145.3,164.1C145.2,164.1,145.2,164.1,145.3,164.1L145.3,164.1z"/>
			</g>
			<g>
				<path class="st1" d="M145.3,164.1c-2.6-3-5.1-6-7.7-9c0.5-0.1,0.9-0.2,1.4-0.6l7.7,9C146.2,163.9,145.8,164.1,145.3,164.1z"/>
			</g>
			<g>
				<path class="st1" d="M142.4,139.4c0.2,0,0.4,0,0.6,0c1.1,0.2,2,1.2,2.1,2.5c-0.4,4.2-3.2,10-6.1,12.7c-0.5,0.4-0.9,0.5-1.4,0.6
					c-0.6,0.1-1.4-0.2-1.8-0.7c-0.4-0.4-0.6-1-0.6-1.6s0.2-1.2,0.7-1.6c2.2-2,3.9-6.6,4.7-10c0-0.5,0.3-0.9,0.8-1.4
					C141.6,139.5,142,139.4,142.4,139.4z"/>
			</g>
			<g>
				<path class="st1" d="M152.8,150.8c-0.4,4.2-3.2,10-6.1,12.7l-7.7-9c2.9-2.7,5.7-8.6,6.1-12.7
					C147.4,144.6,150.5,148.2,152.8,150.8z"/>
			</g>
			<g>
				<path d="M143,163.7l-7.7-9l0.1,0.1c0.6,0.6,1.5,0.9,2.2,0.9c0.6-0.1,1.1-0.3,1.7-0.7l7.7,9c-0.6,0.4-1.1,0.7-1.7,0.7
					C144.5,164.7,143.6,164.4,143,163.7L143,163.7z"/>
			</g>
			<g>
				<path d="M143.2,138.9c1.3,0.2,2.4,1.4,2.5,3c-0.4,4.3-3.3,10.3-6.3,13.1c-0.6,0.4-1.1,0.7-1.7,0.7c-0.8,0.1-1.6-0.3-2.2-0.9
					c-0.4-0.5-0.7-1.2-0.8-1.9c0-0.7,0.3-1.5,0.9-2c2.1-1.9,3.8-6.4,4.6-9.8c0.1-0.6,0.4-1.1,1-1.7c0.4-0.3,0.9-0.5,1.4-0.6
					C142.7,138.8,142.9,138.9,143.2,138.9z M139,154.6c2.9-2.7,5.7-8.6,6.1-12.7c-0.1-1.3-0.9-2.3-2.1-2.5c-0.2,0-0.4,0-0.6,0
					c-0.4,0-0.8,0.2-1.1,0.5c-0.5,0.4-0.7,0.9-0.8,1.4c-0.8,3.4-2.5,8.1-4.7,10c-0.5,0.4-0.7,1.1-0.7,1.6c0,0.6,0.3,1.2,0.6,1.6
					c0.5,0.5,1.2,0.8,1.8,0.7S138.5,155,139,154.6"/>
			</g>
			<g>
				<path d="M145.6,141.9l7.7,9c-0.4,4.3-3.3,10.3-6.3,13.1l-7.7-9C142.3,152.1,145.2,146.2,145.6,141.9z"/>
			</g>
			<g>
				<polygon points="137.6,110.9 145.3,119.9 162.5,152.6 154.9,143.6 				"/>
			</g>
			<g>
				<polygon class="st1" points="178.9,107.2 165.7,142.7 154.9,143.6 137.6,110.9 149.7,109.8 159.8,131.3 166.6,108.3 				"/>
			</g>
			<g>
				<polygon class="st1" points="165.7,142.7 173.3,151.6 162.5,152.6 154.9,143.6 				"/>
			</g>
			<g>
				<polygon class="st1" points="178.9,107.2 186.5,116.1 173.3,151.6 165.7,142.7 				"/>
			</g>
			<g>
				<polygon points="166,143.1 173.7,152.1 162.2,153.1 154.6,144.2 				"/>
			</g>
			<g>
				<polygon points="179.6,106.6 187.2,115.6 173.7,152.1 166,143.1 				"/>
			</g>
			<g>
				<path d="M166.2,107.8l13.4-1.2L166,143.1l-11.5,1l-0.1-0.1l-17.7-33.5l13.2-1.2l0.1,0.2l9.6,20.5L166.2,107.8z M165.7,142.7
					l13.2-35.5l-12.3,1.1l-6.8,23.1l-10.1-21.5l-12.1,1.1l17.3,32.7L165.7,142.7"/>
			</g>
		</g>
		<g class="st0">
			<g>
				<path d="M221.7,110.3l7.7,9c-4.5-5.3-11.5-7.3-18-6.7c-11.8,1.1-20.2,9.9-19.5,20.5c0.1,1,0.6,6,4.2,10.2l-7.7-9
					c-3.6-4.2-4.1-9.3-4.2-10.2c-0.7-10.6,7.7-19.4,19.5-20.5C210.2,103,217.2,105,221.7,110.3z"/>
			</g>
			<g>
				<path class="st1" d="M212.1,113.6l7.7,9c-1.5-1.7-3.9-2.9-7.4-2.6c-4.8,0.4-8,3.7-8.3,8.2l-7.7-9c0.2-4.5,3.5-7.7,8.3-8.2
					C208.1,110.7,210.6,111.8,212.1,113.6z"/>
			</g>
			<g>
				<path d="M211.8,113.9l7.7,9c-1.7-2-4.4-2.7-7-2.5c-4.4,0.4-7.4,3.3-7.8,7.4l-7.7-9c0.3-4.1,3.3-7,7.8-7.4
					C207.3,111.3,210.1,112,211.8,113.9z"/>
			</g>
			<g>
				<polygon points="213.8,117.9 221.5,126.8 204.1,128.4 196.4,119.4 				"/>
			</g>
			<g>
				<polygon class="st1" points="196.4,119.2 204.1,128.1 204.1,128.4 196.4,119.4 				"/>
			</g>
			<g>
				<polygon class="st1" points="196.6,124.3 204.3,133.2 204.3,133.5 196.7,124.5 				"/>
			</g>
			<g>
				<path class="st1" d="M204.3,133.5c0.2,1.4,0.6,3.6,2.2,5.5l-7.7-9c-1.6-1.8-2-4.1-2.2-5.5C199,127.2,202.9,130.2,204.3,133.5z"
					/>
			</g>
			<g>
				<path d="M212.1,113.6l7.7,9c1,1.2,1.6,2.6,1.7,4l-7.7-9C213.6,116.1,213.1,114.7,212.1,113.6z"/>
			</g>
			<g>
				<polygon points="213.8,117.6 221.4,126.6 221.5,126.8 213.8,117.9 				"/>
			</g>
			<g>
				<polygon class="st1" points="226.2,121.5 233.9,130.5 204.3,133.2 196.6,124.3 				"/>
			</g>
			<g>
				<path d="M206.9,138.6l-7.7-9c-1.4-1.6-1.9-3.6-2-4.9l7.7,9C205,135,205.5,137,206.9,138.6z"/>
			</g>
			<g>
				<path d="M213.8,117.6v0.3l-17.4,1.6v-0.3c0.2-4.5,3.5-7.7,8.3-8.2C210.4,110.5,213.4,113.9,213.8,117.6z M196.9,118.9l16.3-1.5
					c-0.7-4.6-4.7-6.3-8.5-5.9C200.3,111.9,197.3,114.8,196.9,118.9"/>
			</g>
			<g>
				<polygon points="226.8,122 234.4,130.9 204.9,133.7 197.2,124.7 				"/>
			</g>
			<g>
				<path d="M206.5,138.9l-7.7-9c1.5,1.8,4.1,3.2,8.5,2.8c3.5-0.3,6.1-1.8,7.7-4.3l7.7,9c-1.6,2.6-4.2,4-7.7,4.3
					C210.7,142.1,208.1,140.7,206.5,138.9z"/>
			</g>
			<g>
				<polygon points="226.8,121.7 234.4,130.7 234.4,130.9 226.8,122 				"/>
			</g>
			<g>
				<path class="st1" d="M221.7,110.3l7.7,9c2.4,2.8,4.1,6.5,4.6,11.3l-7.7-9C225.8,116.8,224.1,113.1,221.7,110.3z"/>
			</g>
			<g>
				<path d="M221.9,109.8l7.7,9c2.7,3.2,4.5,7.4,4.9,12l-7.7-9C226.3,117.2,224.6,113,221.9,109.8z"/>
			</g>
			<g>
				<polygon points="226.2,127.5 233.8,136.4 222.7,137.3 215.1,128.4 				"/>
			</g>
			<g>
				<polygon points="226.9,126.9 234.6,135.9 234.4,136.2 226.8,127.3 				"/>
			</g>
			<g>
				<path class="st1" d="M196.1,143.3l-7.7-9c3.2,3.7,8.7,6.8,18.4,5.9c13.3-1.2,18.2-10.1,19.3-12.7l7.7,9
					c-1.1,2.6-6,11.5-19.3,12.7C204.8,150,199.2,147,196.1,143.3z"/>
			</g>
			<g>
				<path class="st1" d="M207.4,132.7c3.5-0.3,6.1-1.8,7.7-4.3l11.1-0.9c-1.1,2.6-6,11.5-19.3,12.7c-20.8,1.9-22.5-14.3-22.6-16.1
					c-0.7-10.6,7.7-19.4,19.5-20.5c9.9-0.9,21.1,4.3,22.5,17.9l-29.6,2.7v0.2C197,127.2,198.6,133.5,207.4,132.7z M196.4,119.2v0.3
					l17.4-1.6v-0.3c-0.4-3.7-3.4-7.1-9.1-6.6C199.9,111.4,196.7,114.6,196.4,119.2"/>
			</g>
			<g>
				<path d="M195.5,143.5l-7.7-9c3.6,4.2,9.7,7,19,6.1c14.3-1.3,19.1-11.4,19.9-13.4l7.7,9c-0.8,2-5.6,12.1-19.9,13.4
					C205.2,150.5,199.1,147.7,195.5,143.5z"/>
			</g>
			<g>
				<path d="M214.7,128l0.1-0.1l12.2-1l-0.1,0.4c-0.8,2-5.6,12.1-19.9,13.4c-16.2,1.5-22.6-8-23.1-16.6c-0.7-10.9,7.9-19.9,19.9-21
					c6.5-0.6,12.2,1.1,16.4,4.8c3.8,3.4,6.2,8.3,6.7,13.8v0.2l-29.6,2.7c0.4,2.7,2.1,8.3,10.1,7.6
					C210.7,131.9,213.2,130.5,214.7,128z M226.2,127.5l-11.1,0.9c-1.6,2.6-4.2,4-7.7,4.3c-8.8,0.8-10.4-5.5-10.7-8.2v-0.2l29.6-2.7
					c-1.4-13.6-12.6-18.9-22.5-17.9c-11.8,1.1-20.2,9.9-19.5,20.5c0.1,1.8,1.8,18,22.6,16.1C220.1,139,225,130,226.2,127.5"/>
			</g>
		</g>
		<g class="st0">
			<g>
				<polygon points="371.1,50.2 378.7,59.1 367,60.2 359.3,51.2 				"/>
			</g>
			<g>
				<polygon points="359.3,51.2 367,60.2 367.8,72.5 360.1,63.6 				"/>
			</g>
			<g>
				<polygon class="st1" points="371.9,62.5 379.5,71.5 367.8,72.5 360.1,63.6 				"/>
			</g>
			<g>
				<polygon class="st1" points="371.1,50.2 371.9,62.5 360.1,63.6 359.3,51.2 				"/>
			</g>
			<g>
				<polygon class="st1" points="371.1,50.2 378.7,59.1 379.5,71.5 371.9,62.5 				"/>
			</g>
			<g>
				<polygon points="372.4,63 380,71.9 367.3,73.1 359.7,64.1 				"/>
			</g>
			<g>
				<polygon points="371.5,49.6 379.2,58.6 380,71.9 372.4,63 				"/>
			</g>
			<g>
				<path d="M358.8,50.8l12.7-1.2l0.9,13.3l-12.7,1.2L358.8,50.8z M371.9,62.5l-0.8-12.3l-11.7,1.1l0.8,12.3L371.9,62.5"/>
			</g>
		</g>
	</g>
</g>
</svg>
