<?xml version="1.0" encoding="utf-8"?>
<!-- Generator: Adobe Illustrator 23.1.1, SVG Export Plug-In . SVG Version: 6.00 Build 0)  -->
<svg version="1.1" id="Layer_1" xmlns="http://www.w3.org/2000/svg" xmlns:xlink="http://www.w3.org/1999/xlink" x="0px" y="0px"
	 viewBox="0 0 428 207" style="enable-background:new 0 0 428 207;" xml:space="preserve">
<g id="Layer_3">
	<g>
		<g>
			<g>
				<path d="M48.42,45.93h12.03v7.2c2.88-5.91,8.5-7.99,14.18-7.99c6.12,0,11.23,3.17,13.39,8.28c3.17-5.18,8.86-8.28,14.98-8.28
					c7.92,0,14.98,5.26,14.98,15.99v20.09h-12.24V62.71c0-5.4-2.88-8.06-6.12-8.06c-5.83,0-10.3,4.54-10.3,11.74v14.83H77.08v-18
					c0-5.9-2.59-8.42-6.41-8.42c-4.97,0-10.01,4.75-10.01,12.24v14.19H48.42V45.93z"/>
			</g>
			<g>
				<path d="M149.29,44.64c13.47,0,21.53,8.06,21.53,18.72c0,11.81-10.01,19.08-21.53,19.08c-13.68,0-21.39-9.36-21.39-19.01
					C127.9,52.99,136.47,44.64,149.29,44.64z M156.41,67.36c3.15-5.85,2.55-11.26-2.15-13.79c-4.82-2.59-9.47-0.19-12.73,5.87
					c-3.03,5.64-3.21,11.27,1.99,14.07C148.35,76.11,153.42,72.92,156.41,67.36z"/>
			</g>
			<g>
				<path d="M210.92,31.61h12.31v49.61h-12.38v-5.18c-2.81,3.38-7.78,6.12-13.68,6.12c-10.8,0-18.22-8.64-18.22-18.72
					c0-12.53,10.94-18.65,19.01-18.65c4.25,0,9,1.51,12.96,5.04L210.92,31.61L210.92,31.61z M193.85,54.07
					c-4.63,3.19-4.53,8.54-0.48,14.41c3.72,5.4,8.36,7.44,13.34,4.01c3.62-2.49,5.32-7.77,0.74-14.41
					C203.66,52.56,198.06,51.17,193.85,54.07z"/>
			</g>
			<g>
				<path d="M276.88,70.85c-1.66,3.46-7.7,11.59-20.74,11.59c-17.35,0-22.03-11.52-22.03-18.65c0-10.15,8.35-19.15,21.17-19.15
					c13.97,0,21.46,10.01,21.82,20.81h-29.96c0.22,4.46,2.74,9.07,10.01,9.07c3.31,0,6.12-1.08,7.92-3.67H276.88z M263.29,56.43
					c1.79-3.32,1.77-6.22-0.32-7.34c-2.15-1.16-4.48,0.38-6.33,3.82c-1.72,3.2-2.09,6.25,0.23,7.5
					C259.03,61.57,261.59,59.59,263.29,56.43z M274.29,56.43c1.79-3.32,1.77-6.22-0.32-7.34c-2.15-1.16-4.48,0.38-6.33,3.82
					c-1.72,3.2-2.09,6.25,0.23,7.5C270.03,61.57,272.59,59.59,274.29,56.43z"/>
			</g>
			<g>
				<path d="M326.62,46.29v7.14c2.66-5.83,8.14-8.28,14.47-8.28c10.37,0,14.62,7.34,14.62,13.9v22.18H343.4V62.71
					c0-5.69-2.52-8.06-6.34-8.06c-5.18,0-10.3,4.32-10.3,12.53v14.04h-12.31V56.81h-1.14c-6.55,0-9.29,0.94-11.59,3.17
					c-2.23,2.23-3.02,4.68-3.02,7.06v14.19h-12.31v-35.3h12.31v9.79c2.66-6.12,6.7-9.44,13.75-9.44"/>
			</g>
		</g>
		<g>
			<path d="M139.74,108.64h12.82l8.64,22.32l8.21-22.32h12.96l-15.84,35.28h-11.3L139.74,108.64z"/>
		</g>
		<g>
			<path d="M228.67,133.56c-1.66,3.46-7.7,11.59-20.74,11.59c-17.35,0-22.03-11.52-22.03-18.65c0-10.15,8.35-19.15,21.17-19.15
				c13.97,0,21.46,10.01,21.82,20.81h-29.96c0.22,4.46,2.74,9.07,10.01,9.07c3.31,0,6.12-1.08,7.92-3.67L228.67,133.56
				L228.67,133.56z M216.21,122.69c-0.22-3.89-3.1-7.34-8.5-7.34c-4.82,0-8.06,2.88-8.64,7.34H216.21z"/>
		</g>
		<g>
			<path d="M111.9,132.51c-6.17,0-11.1,4.93-11.1,11.1s4.93,11.18,11.1,11.18s11.18-5.01,11.18-11.18S118.06,132.51,111.9,132.51z
				 M111.9,147.08c-1.85,0-3.39-1.54-3.39-3.47c0-1.85,1.54-3.39,3.39-3.39c1.93,0,3.47,1.54,3.47,3.39
				C115.37,145.54,113.82,147.08,111.9,147.08z"/>
			<path d="M133.92,122.75c-2.68-2.66-5.98-4.01-9.82-4.01c-3.85,0-7.27,1.42-10.19,4.23c-0.74,0.73-1.42,1.57-2.04,2.53
				c-0.66-0.99-1.38-1.86-2.15-2.59c-2.84-2.74-6.25-4.13-10.13-4.13s-7.19,1.36-9.84,4.05c-2.31,2.34-3.62,5.19-3.91,8.49h-22.8
				v-37H49.35v49.61h40c0.19,0.31,0.38,0.62,0.59,0.94c0.83,1.28,2.95,4.17,6.47,8.82c4.58,6.05,7.7,10.55,9.27,13.37
				c1.44,2.59,3.37,8.33,3.37,8.33l5.81-0.01c0,0,1.95-5.63,3.42-8.25c2.05-3.63,5.39-8.39,9.94-14.12
				c3.77-4.72,6.26-8.48,7.62-11.5c1.41-3.13,2.13-6.22,2.13-9.17C137.97,128.65,136.61,125.42,133.92,122.75z M111.9,155.87
				c-6.71,0-12.18-5.47-12.18-12.26c0-6.71,5.47-12.18,12.18-12.18c6.79,0,12.26,5.47,12.26,12.18
				C124.15,150.39,118.68,155.87,111.9,155.87z"/>
		</g>
		<g>
			<g>
				<path d="M367.2,68.59h12.39V81.7H367.2V68.59z"/>
			</g>
		</g>
		<path d="M143.79,138c-0.69-0.18-1.42-0.06-2,0.32c-0.53,0.35-0.9,0.89-1.04,1.5c-1.09,3.55-3.14,7.86-5.33,9.6
			c-0.54,0.43-0.88,1.08-0.93,1.78c-0.04,0.64,0.16,1.27,0.56,1.78c0.51,0.64,1.26,0.97,2.01,0.97c0.55,0,1.09-0.18,1.56-0.54
			l0.03-0.02c3.13-2.49,6.36-8.21,7.05-12.48C145.91,139.6,145.06,138.31,143.79,138z M137.39,151.83L137.39,151.83L137.39,151.83
			L137.39,151.83z"/>
		<path d="M90.99,114.91c-0.38-0.73-1.09-1.05-1.62-1.19c-0.94-0.24-1.6,0.03-1.92,0.25c-3.36,2.16-6.09,5.45-7.67,9.25
			c-0.54,1.29,0.05,2.78,1.33,3.32c0.31,0.13,0.63,0.19,0.94,0.19c0.99,0,1.94-0.6,2.35-1.59c1.18-2.84,3.2-5.28,5.69-6.88
			C91.21,117.54,91.6,116.07,90.99,114.91z"/>
	</g>
</g>
</svg>
