<?xml version="1.0" encoding="utf-8"?>
<!-- Generator: Adobe Illustrator 23.1.1, SVG Export Plug-In . SVG Version: 6.00 Build 0)  -->
<svg version="1.1" id="Layer_1" xmlns="http://www.w3.org/2000/svg" xmlns:xlink="http://www.w3.org/1999/xlink" x="0px" y="0px"
	 viewBox="0 0 428 207" style="enable-background:new 0 0 428 207;" xml:space="preserve">
<g id="Layer_3">
	<g>
		<path d="M56.35,46.2h12.03v7.2c2.88-5.91,8.5-7.99,14.18-7.99c6.12,0,11.23,3.17,13.39,8.28c3.17-5.18,8.86-8.28,14.98-8.28
			c7.92,0,14.98,5.26,14.98,15.99v20.09h-12.24V62.98c0-5.4-2.88-8.06-6.12-8.06c-5.83,0-10.3,4.54-10.3,11.74v14.83H85.01v-18
			c0-5.9-2.59-8.42-6.41-8.42c-4.97,0-10.01,4.75-10.01,12.24V81.5H56.35V46.2z"/>
		<path d="M157.23,44.91c13.47,0,21.53,8.06,21.53,18.72c0,11.81-10.01,19.08-21.53,19.08c-13.68,0-21.39-9.36-21.39-19.01
			C135.84,53.26,144.41,44.91,157.23,44.91z M164.35,67.62c3.15-5.85,2.55-11.26-2.15-13.79c-4.82-2.59-9.47-0.19-12.73,5.87
			c-3.03,5.64-3.21,11.27,1.99,14.07C156.29,76.37,161.35,73.19,164.35,67.62z"/>
		<path d="M218.86,31.87h12.31v49.61h-12.38V76.3c-2.81,3.38-7.78,6.12-13.68,6.12c-10.8,0-18.22-8.64-18.22-18.72
			c0-12.53,10.94-18.65,19.01-18.65c4.25,0,9,1.51,12.96,5.04L218.86,31.87L218.86,31.87z M201.79,54.33
			c-4.63,3.19-4.53,8.54-0.48,14.41c3.72,5.4,8.36,7.44,13.34,4.01c3.62-2.49,5.32-7.77,0.74-14.41
			C211.6,52.83,206,51.43,201.79,54.33z"/>
		<path d="M284.81,71.12c-1.66,3.46-7.7,11.59-20.74,11.59c-17.35,0-22.03-11.52-22.03-18.65c0-10.15,8.35-19.15,21.17-19.15
			c13.97,0,21.46,10.01,21.82,20.81h-29.96c0.22,4.46,2.74,9.07,10.01,9.07c3.31,0,6.12-1.08,7.92-3.67H284.81z M265.07,56.66
			c1.79-3.32,1.77-6.22-0.32-7.34c-2.15-1.16-4.48,0.38-6.33,3.82c-1.72,3.2-2.09,6.25,0.23,7.5
			C260.8,61.79,263.37,59.82,265.07,56.66z M283.07,56.66c1.79-3.32,1.77-6.22-0.32-7.34c-2.15-1.16-4.48,0.38-6.33,3.82
			c-1.72,3.2-2.09,6.25,0.23,7.5C278.8,61.79,281.37,59.82,283.07,56.66z"/>
		<path d="M306.63,56c2.66-6.12,6.7-10.44,13.75-10.44h2.38v11.52h-1.51c-6.55,0-9.29,0.94-11.59,3.17
			c-2.23,2.23-3.02,4.68-3.02,7.06V81.5h-12.31V46.2h12.31V56H306.63z"/>
		<path d="M330.39,46.2h12.17v7.49c2.66-5.83,8.14-8.28,14.47-8.28c10.37,0,14.62,7.34,14.62,13.9v22.18h-12.31V62.98
			c0-5.69-2.52-8.06-6.34-8.06c-5.18,0-10.3,4.32-10.3,12.53v14.04h-12.31L330.39,46.2L330.39,46.2z"/>
		<path d="M141.86,122.02c-2.68-2.66-5.98-4.01-9.82-4.01c-3.85,0-7.27,1.42-10.19,4.23c-0.74,0.73-1.42,1.57-2.04,2.53
			c-0.66-0.99-1.38-1.86-2.15-2.59c-2.84-2.74-6.25-4.13-10.13-4.13s-7.19,1.36-9.84,4.05c-2.64,2.68-3.98,6.02-3.98,9.94
			c0,2.02,0.35,4.04,1.03,6c0.66,1.88,1.71,3.93,3.14,6.09c0.83,1.28,2.95,4.17,6.47,8.82c4.58,6.05,7.7,10.55,9.27,13.37
			c1.51,2.72,2.69,5.67,3.51,8.78l5.53,0.02c0.82-3.02,2.02-5.96,3.57-8.72c2.05-3.63,5.39-8.39,9.94-14.12
			c3.77-4.72,6.26-8.48,7.62-11.5c1.41-3.13,2.13-6.22,2.13-9.17C145.9,127.92,144.54,124.69,141.86,122.02z M138.56,138.44
			c-1.15,2.54-3.46,6-6.88,10.29c-4.73,5.97-8.24,10.97-10.44,14.87c-0.46,0.82-0.9,1.66-1.3,2.51c-0.41-0.87-0.85-1.72-1.31-2.56
			c-1.72-3.09-4.89-7.69-9.71-14.04c-3.39-4.48-5.49-7.34-6.24-8.5c-1.17-1.79-2.02-3.42-2.53-4.85c-0.47-1.35-0.71-2.73-0.71-4.11
			c0-2.39,0.76-4.33,2.33-5.92c1.56-1.58,3.44-2.35,5.77-2.35c2.38,0,4.39,0.83,6.17,2.54c1.38,1.31,2.55,3.4,3.48,6.2l5.46-0.09
			c0.79-2.72,1.88-4.77,3.2-6.08c1.82-1.76,3.85-2.61,6.2-2.61c2.3,0,4.2,0.77,5.79,2.35c1.58,1.57,2.35,3.38,2.35,5.54
			C140.18,133.76,139.64,136.05,138.56,138.44z"/>
		<g>
			<path d="M57.29,92.58h13.68v37.01h27.58v12.6H57.29V92.58z"/>
			<path d="M147.68,106.91h12.82l8.64,22.32l8.21-22.32h12.96l-15.84,35.28h-11.3L147.68,106.91z"/>
			<path d="M236.61,131.83c-1.66,3.46-7.7,11.59-20.74,11.59c-17.35,0-22.03-11.52-22.03-18.65c0-10.15,8.35-19.15,21.17-19.15
				c13.97,0,21.46,10.01,21.82,20.81h-29.96c0.22,4.46,2.74,9.07,10.01,9.07c3.31,0,6.12-1.08,7.92-3.67H236.61z M224.15,120.95
				c-0.22-3.89-3.1-7.34-8.5-7.34c-4.82,0-8.06,2.88-8.64,7.34H224.15z"/>
		</g>
	</g>
</g>
</svg>
